<svg xmlns="http://www.w3.org/2000/svg" width="20.596" height="24" viewBox="0 0 20.596 24">
  <defs>
    <clipPath id="a">
      <path data-name="Rectangle 966" d="M0 0h20.596v24H0z"/>
    </clipPath>
  </defs>
  <g data-name="Group 539">
    <g data-name="Group 538" clip-path="url(#a)">
      <path data-name="Path 3464" d="M10.3 24a10.119 10.119 0 0 1-4.019-.8A10.27 10.27 0 0 1 .8 17.721 10.119 10.119 0 0 1 0 13.7h1.716a8.284 8.284 0 0 0 2.5 6.079 8.27 8.27 0 0 0 6.084 2.5 8.279 8.279 0 0 0 6.084-2.5 8.279 8.279 0 0 0 2.5-6.084 8.4 8.4 0 0 0-2.431-6.084 8.049 8.049 0 0 0-6.007-2.5h-.634L11.9 7.209l-1.2 1.2-4.207-4.204L10.7 0l1.173 1.173L9.64 3.4h.66a10.119 10.119 0 0 1 4.019.8 10.27 10.27 0 0 1 5.478 5.478 10.119 10.119 0 0 1 .8 4.019 10.119 10.119 0 0 1-.8 4.019 10.27 10.27 0 0 1-5.48 5.484 10.119 10.119 0 0 1-4.017.8m-3.435-6.579v-6.065H5.321v-1.4H8.3v7.466Z"/>
      <path data-name="Path 3465" d="M9.726 17.421v-1.43h3.633v-1.6H9.726V9.955h5.035v1.4h-3.6v1.631h2.632a.977.977 0 0 1 .973.973v2.489a.977.977 0 0 1-.973.973Z"/>
    </g>
  </g>
</svg>
