<svg xmlns="http://www.w3.org/2000/svg" width="20.596" height="24" viewBox="0 0 20.596 24"><defs><clipPath id="a"><path data-name="Rectangle 967" d="M0 0h20.596v24H0z"/></clipPath></defs><g data-name="Group 541"><g data-name="Group 540" clip-path="url(#a)"><path data-name="Path 3466" d="M6.279 23.2A10.27 10.27 0 0 1 .8 17.721 10.119 10.119 0 0 1 0 13.7a10.119 10.119 0 0 1 .8-4.017 10.27 10.27 0 0 1 5.479-5.478A10.119 10.119 0 0 1 10.3 3.4h.658L8.725 1.173 9.9 0l4.2 4.205L9.9 8.41l-1.2-1.2 2.084-2.09h-.629a8.049 8.049 0 0 0-6.007 2.5 8.4 8.4 0 0 0-2.432 6.08 8.279 8.279 0 0 0 2.5 6.084 8.279 8.279 0 0 0 6.084 2.5 8.27 8.27 0 0 0 6.084-2.5 8.284 8.284 0 0 0 2.5-6.079H20.6a10.119 10.119 0 0 1-.8 4.019 10.27 10.27 0 0 1-5.483 5.476 10.119 10.119 0 0 1-4.017.8 10.119 10.119 0 0 1-4.019-.8m1.1-5.778v-6.066H5.836v-1.4H8.81v7.466Zm2.861 0V15.99h3.633v-1.6h-3.634V9.955h5.035v1.4h-3.6v1.631H14.3a.977.977 0 0 1 .973.973v2.489a.977.977 0 0 1-.973.973Z"/></g></g></svg>