<svg xmlns="http://www.w3.org/2000/svg" width="18.795" height="13.669" viewBox="0 0 18.795 13.669">
  <path data-name="payments_FILL0_wght400_GRAD0_opsz48 (1)" d="M10.679 8.116a2.552 2.552 0 1 1 1.815-.748 2.472 2.472 0 0 1-1.815.748Zm-6.835 2.99a1.285 1.285 0 0 1-1.281-1.281V1.282A1.285 1.285 0 0 1 3.844 0h13.669a1.285 1.285 0 0 1 1.281 1.281v8.543a1.285 1.285 0 0 1-1.281 1.281ZM5.98 9.825h9.4a2.115 2.115 0 0 1 2.136-2.136V3.417a2.115 2.115 0 0 1-2.136-2.136h-9.4a2.115 2.115 0 0 1-2.136 2.136v4.272A2.115 2.115 0 0 1 5.98 9.825Zm10.252 3.844H1.281A1.285 1.285 0 0 1 0 12.388V2.563h1.281v9.825h14.951ZM3.844 9.825Z"/>
</svg>
