<svg xmlns="http://www.w3.org/2000/svg" width="18.795" height="13.669" viewBox="0 0 18.795 13.669">
  <path id="payments_FILL0_wght400_GRAD0_opsz48_1_" data-name="payments_FILL0_wght400_GRAD0_opsz48 (1)" d="M50.679,264.116a2.552,2.552,0,1,1,1.815-.748A2.472,2.472,0,0,1,50.679,264.116Zm-6.835,2.99a1.285,1.285,0,0,1-1.281-1.281v-8.543A1.285,1.285,0,0,1,43.844,256H57.513a1.285,1.285,0,0,1,1.281,1.281v8.543a1.285,1.285,0,0,1-1.281,1.281Zm2.136-1.281h9.4a2.115,2.115,0,0,1,2.136-2.136v-4.272a2.115,2.115,0,0,1-2.136-2.136h-9.4a2.115,2.115,0,0,1-2.136,2.136v4.272a2.115,2.115,0,0,1,2.136,2.136Zm10.252,3.844H41.281A1.285,1.285,0,0,1,40,268.388v-9.825h1.281v9.825H56.232Zm-12.388-3.844v0Z" transform="translate(-40 -256)"/>
</svg>
