<svg xmlns="http://www.w3.org/2000/svg" width="21.234" height="20.644" viewBox="0 0 21.234 20.644">
  <path data-name="volume_up_FILL0_wght400_GRAD0_opsz48 (1)" d="M12.976 20.644v-1.828a8.877 8.877 0 0 0 4.674-3.17 8.47 8.47 0 0 0 1.814-5.323 8.791 8.791 0 0 0-6.488-8.493V0a10.572 10.572 0 0 1 0 20.644ZM0 13.89V6.812h4.719l5.9-5.9v18.874l-5.9-5.9Zm12.386 1.416V5.367a4.76 4.76 0 0 1 2.58 1.887 5.32 5.32 0 0 1 .958 3.1 5.218 5.218 0 0 1-.973 3.067 4.833 4.833 0 0 1-2.565 1.885ZM8.847 5.397 5.515 8.582H1.77v3.539h3.745l3.332 3.215Zm-2.772 4.954Z"/>
</svg>
