<svg xmlns="http://www.w3.org/2000/svg" viewBox="0 0 156 156">
  <style>
    @keyframes opacity{0%,75%{opacity:1}to{opacity:0}}
  </style>
  <path id="Path_3356" data-name="Path 3356" d="M78 0A78 78 0 1 1 0 78 78 78 0 0 1 78 0" fill="#25386f"/>
  <path id="Path_3357" data-name="Path 3357" d="M132.726 85.691c0-2.586-2.065-5.532-17.354-7.78-3.75-.552-7.961-1.01-12.5-1.368a19.835 19.835 0 0 1-3.77 4.481c17.377 1.444 25.676 3.184 28.313 4.676-2.69 1.522-11.265 3.3-24.268 4.373a20.442 20.442 0 0 1-2.252 4.923c5.295-.376 10.184-.883 14.469-1.514a58.142 58.142 0 0 0 12.634-2.933v-4.858Zm-81.792 4.211c-11.927-1.083-19.795-2.761-22.352-4.2 2.623-1.484 10.834-3.212 23.289-4.291a14.36 14.36 0 0 0 3.659-5.04c-8.52.718-11.862 1.102-14.899 1.549-15.289 2.247-17.357 5.192-17.36 7.78h4.727v4.849a58.187 58.187 0 0 0 12.63 2.932c2.4.353 4.992.667 7.735.941l.091-.138a23.657 23.657 0 0 0 2.48-4.378m24.463-9.534a14.26 14.26 0 0 0 3.581-4.734c-11.591.098-17.751.338-23.448.733a19.69 19.69 0 0 1-3.659 5.04c10.313-.743 16.613-.99 23.525-1.04m23.706.653a14.22 14.22 0 0 0 3.77-4.481c-11.155-.701-17.431-.887-23.894-.905a19.317 19.317 0 0 1-3.582 4.733c11.729.04 18.074.279 23.706.653" fill="#5ab0e1"/>
  <clipPath id="a_mask0">
    <path fill="#fff" d="M42 90h22v24H42z">
      <animate attributeName="y" from="90" to="32" begin="0s" dur="3s" fill="freeze" repeatCount="indefinite"/>
    </path>
  </clipPath>
  <clipPath id="a_mask1">
    <path fill="#fff" d="M64 90h22v24H64z">
      <animate attributeName="y" from="90" to="32" begin="0s" dur="3s" fill="freeze" repeatCount="indefinite"/>
    </path>
  </clipPath>
  <clipPath id="a_mask2">
    <path fill="#fff" d="M88 90h22v24H88z">
      <animate attributeName="y" from="90" to="32" begin="0s" dur="3s" fill="freeze" repeatCount="indefinite"/>
    </path>
  </clipPath>
  <path clip-path="url(#a_mask0)" data-name="Path 3374" d="m45.405 32.554 3.342 3.342L52 32.648v3.672c0 5.213-1.642 7.684-3.544 10.545-2.035 3.054-4.335 6.518-4.335 13.158s2.3 10.106 4.335 13.164a28.111 28.111 0 0 1 2.127 3.576 14.354 14.354 0 0 1 1.289 4.643A20.687 20.687 0 0 1 52 83.733a16.124 16.124 0 0 1-1.064 6.169q2.332.212 4.866.391a21.765 21.765 0 0 0 .926-6.56 25.279 25.279 0 0 0-.142-2.687 19.65 19.65 0 0 0-1.054-4.675 26.4 26.4 0 0 0-3.138-5.8c-1.9-2.861-3.545-5.332-3.545-10.547s1.643-7.683 3.545-10.545c2-3 4.252-6.412 4.327-12.837h.007v-3.994L59.98 35.9l3.341-3.346-8.958-8.959Z" fill="#fff" style="animation-name:opacity;animation-duration:3s;animation-iteration-count:infinite"/>
  <path clip-path="url(#a_mask1)" data-name="Path 3372" d="m69.042 32.333 3.342 3.342 3.252-3.252v3.672c0 5.213-1.642 7.684-3.544 10.545-2.034 3.058-4.334 6.522-4.334 13.167s2.3 10.1 4.335 13.158c.6.9 1.176 1.77 1.681 2.7a14.26 14.26 0 0 1 1.624 4.71 19.505 19.505 0 0 1 .239 3.14 15.371 15.371 0 0 1-1.679 7.492c1.323.015 2.663.024 4.032.024h1.118a21.083 21.083 0 0 0 1.256-7.524 24.928 24.928 0 0 0-.194-3.143 19.353 19.353 0 0 0-1.192-4.731 27.79 27.79 0 0 0-2.948-5.289c-1.9-2.862-3.545-5.333-3.545-10.547s1.643-7.683 3.545-10.545c2-3 4.252-6.412 4.327-12.837h.007v-4l3.252 3.252 3.342-3.342L78 23.366Z" fill="#fff" style="animation-name:opacity;animation-duration:3s;animation-iteration-count:infinite"/>
  <path clip-path="url(#a_mask2)" data-name="Path 3373" d="m101.636 23.595-8.958 8.959 3.342 3.342 3.253-3.249v3.67c0 5.213-1.642 7.683-3.545 10.545-2.034 3.056-4.334 6.521-4.334 13.161s2.3 10.106 4.334 13.163a32.892 32.892 0 0 1 1.841 3 14.2 14.2 0 0 1 1.532 4.838 20.233 20.233 0 0 1 .171 2.71 15.749 15.749 0 0 1-1.293 6.706q2.687-.167 5.166-.372a21.982 21.982 0 0 0 .854-6.335c0-.83-.036-1.61-.1-2.346a19.872 19.872 0 0 0-1.027-4.84 25.966 25.966 0 0 0-3.2-5.977c-1.9-2.862-3.545-5.332-3.545-10.547s1.642-7.684 3.545-10.545c2-3 4.252-6.412 4.327-12.837h.007v-3.994l3.252 3.252 3.342-3.342Z" fill="#fff" style="animation-name:opacity;animation-duration:3s;animation-iteration-count:infinite"/>
  <path d="m-2.599-8.958-3.342 3.342 3.248 3.253H-3v4.728h.307l-3.252 3.252 3.346 3.341L6.36 0Z" fill="#fff" style="animation-name:opacity;animation-duration:3s;animation-iteration-count:infinite">
    <animateMotion dur="3s" begin="0s" fill="freeze" repeatCount="indefinite" rotate="auto" path="M 53.3 89.9 C 54.1 87.9 54.4 85.8 54.4 83.7 C 54.4 82.9 54.4 82.1 54.3 81.4 C 54.1 79.8 53.7 78.2 53 76.8 C 52.4 75.6 51.7 74.4 50.9 73.2 C 48.9 70.1 46.6 66.7 46.6 60 S 48.9 49.9 50.9 46.8 C 52.8 44 54.4 41.5 54.4 36.3 V 30"/>
  </path>
  <path d="m-2.599-8.958-3.342 3.342 3.248 3.253H-3v4.728h.307l-3.252 3.252 3.346 3.341L6.36 0Z" fill="#fff" style="animation-name:opacity;animation-duration:3s;animation-iteration-count:infinite">
    <animateMotion dur="3s" begin="0s" fill="freeze" repeatCount="indefinite" rotate="auto" path="M 76.4 91 C 77.6 88.7 78.2 86.1 78.1 83.5 C 78.1 82.4 78 81.4 77.9 80.4 C 77.6 78.7 77.1 77.2 76.3 75.7 C 75.8 74.8 75.2 73.9 74.6 73 C 72.6 69.9 70.3 66.5 70.3 59.8 S 72.6 49.7 74.6 46.6 C 76.5 43.7 78.1 41.3 78.1 36.1 V 30"/>
  </path>
  <path d="m-2.599-8.958-3.342 3.342 3.248 3.253H-3v4.728h.307l-3.252 3.252 3.346 3.341L6.36 0Z" fill="#fff" style="animation-name:opacity;animation-duration:3s;animation-iteration-count:infinite">
    <animateMotion dur="3s" begin="0s" fill="freeze" repeatCount="indefinite" rotate="auto" path="M 100.4 90.4 C 101.3 88.3 101.8 86 101.7 83.7 C 101.7 82.8 101.6 81.9 101.5 81 C 101.3 79.3 100.8 77.7 100 76.2 C 99.4 75.2 98.8 74.2 98.2 73.2 C 96.2 70.1 93.9 66.7 93.9 60 S 96.2 49.9 98.2 46.8 C 100.1 43.9 101.7 41.5 101.7 36.3 V 30"/>
  </path>
  <path id="Path_3358" data-name="Path 3358" d="M88.416 115.314c-6.672-.075-12.757-.332-18.161-.712a20.421 20.421 0 0 1-2.115 4.598c5.4.413 11.251.684 17.348.8.352-.564.709-1.1 1.058-1.629a32.308 32.308 0 0 0 1.87-3.054" transform="translate(-14.454 -24.31)" fill="#5ab0e1"/>
  <path id="Path_3361" data-name="Path 3361" d="M118.613 114.788c-5.64.35-11.96.565-18.868.586a23.567 23.567 0 0 1-2.474 4.726h1.366c5.879 0 11.61-.143 17.025-.414.234-.362.468-.715.7-1.063a26.4 26.4 0 0 0 2.252-3.841" transform="translate(-20.633 -24.349)" fill="#5ab0e1"/>
  <path id="Path_3363" data-name="Path 3363" d="M29.538 108.771v31.253h4.727v-26.407c-3.967-1.592-4.726-3.285-4.727-4.846" transform="translate(-6.266 -23.073)" fill="#5ab0e1"/>
  <path id="Path_3364" data-name="Path 3364" d="M29.538 108.767Z" transform="translate(-6.266 -23.072)" fill="#5ab0e1"/>
  <path id="Path_3365" data-name="Path 3365" d="M29.538 108.767c0 1.562.76 3.255 4.727 4.846v-4.849Z" transform="translate(-6.266 -23.072)" fill="#5ab0e1"/>
  <path id="Path_3366" data-name="Path 3366" d="M162.46 113.617v26.407h4.727v-31.253c0 1.562-.761 3.255-4.727 4.846" transform="translate(-34.461 -23.073)" fill="#5ab0e1"/>
  <path id="Path_3367" data-name="Path 3367" d="M168.46 108.767Z" transform="translate(-35.734 -23.072)" fill="#5ab0e1"/>
  <path id="Path_3368" data-name="Path 3368" d="M162.46 108.767v4.849c3.966-1.591 4.726-3.284 4.727-4.846Z" transform="translate(-34.461 -23.072)" fill="#5ab0e1"/>
  <path id="Path_3369" data-name="Path 3369" d="M97.128 115.53h-.009c-1.369 0-2.709-.009-4.032-.024a32.472 32.472 0 0 1-1.87 3.054 69.163 69.163 0 0 0-1.058 1.629q2.771.053 5.6.064a23.567 23.567 0 0 0 2.475-4.726h-1.109" transform="translate(-19.124 -24.501)" fill="#5ab0e1"/>
  <path id="Path_3370" data-name="Path 3370" d="M123.565 114.688a26.4 26.4 0 0 1-2.252 3.841c-.231.347-.465.7-.7 1.063 2-.1 3.961-.217 5.866-.352a20.352 20.352 0 0 0 2.251-4.923q-2.477.2-5.166.371" transform="translate(-25.585 -24.249)" fill="#5ab0e1"/>
  <path id="Path_3371" data-name="Path 3371" d="M63.957 114.106a23.656 23.656 0 0 1-2.48 4.378l-.091.138a227.7 227.7 0 0 0 5.322.468 20.456 20.456 0 0 0 2.115-4.593q-2.535-.178-4.866-.391" transform="translate(-13.021 -24.204)" fill="#5ab0e1"/>
</svg>
