<svg width="156" height="156" viewBox="0 0 156 156" xmlns="http://www.w3.org/2000/svg">
  <clipPath id="b">
    <path fill="#fff" d="M46 40h63v64H46z"/>
  </clipPath>
  <path data-name="Path 3380" d="M78 0A78 78 0 1 1 0 78 78 78 0 0 1 78 0" fill="#25386f"/>
  <g>
    <path data-name="Path 3382" d="M48 103.205v-9.112a10.622 10.622 0 0 1 1.843-6.107 15.006 15.006 0 0 1 5.04-4.556 44.46 44.46 0 0 1 9.6-3.44 96.131 96.131 0 0 1 12.6-2.279 22.712 22.712 0 0 0-8.143 6.35 15.688 15.688 0 0 0-3.1 10.033v9.112zM71.848 47.08a14.171 14.171 0 0 1 10.469-4.07 16.336 16.336 0 0 1 2.375.194 20.457 20.457 0 0 1 2.375.485 20.629 20.629 0 0 0-3.538 6.155 22.573 22.573 0 0 0-1.211 7.706 24.289 24.289 0 0 0 1.21 7.9 15.922 15.922 0 0 0 3.539 5.961 10.253 10.253 0 0 1-2.375.533 21.684 21.684 0 0 1-2.375.145 13.945 13.945 0 0 1-14.54-14.54 14.17 14.17 0 0 1 4.07-10.469" fill="#3fa9f5"/>
    <animateTransform attributeName="transform" attributeType="XML" type="translate" from="0, 0" to="-25, 1" begin="a.end" dur="1s" fill="freeze"/>
  </g>
  <g>
    <path data-name="Path 3381" d="M89.228 103.211V94.1a15.694 15.694 0 0 0-3.1-10.033 22.7 22.7 0 0 0-8.143-6.349 96.155 96.155 0 0 1 12.6 2.278 44.384 44.384 0 0 1 9.6 3.441 15 15 0 0 1 5.041 4.556 10.63 10.63 0 0 1 1.842 6.107v9.112zM87.29 57.555a13.946 13.946 0 0 1-14.54 14.54 21.683 21.683 0 0 1-2.375-.146A10.255 10.255 0 0 1 68 71.416a15.913 15.913 0 0 0 3.538-5.962 24.263 24.263 0 0 0 1.212-7.9 22.55 22.55 0 0 0-1.212-7.706A20.613 20.613 0 0 0 68 43.692a20.459 20.459 0 0 1 2.375-.485 16.336 16.336 0 0 1 2.375-.194 13.946 13.946 0 0 1 14.54 14.54" fill="#3fa9f5"/>
    <animateTransform attributeName="transform" attributeType="XML" type="translate" from="0, 0" to="25, 1" begin="a.end" dur="1s" fill="freeze"/>
  </g>
  <path d="M46.981 103.946v-9.112a11.291 11.291 0 0 1 1.744-6.155 10.618 10.618 0 0 1 4.847-4.12A76.855 76.855 0 0 1 66.319 80.1a50.023 50.023 0 0 1 11.68-1.357A49.416 49.416 0 0 1 89.631 80.1a77.533 77.533 0 0 1 12.7 4.459 10.9 10.9 0 0 1 4.9 4.12 11.06 11.06 0 0 1 1.793 6.155v9.112zM78 72.831a13.946 13.946 0 0 1-14.54-14.54 14.545 14.545 0 1 1 29.081 0 13.946 13.946 0 0 1-14.54 14.54" fill="#25386f" stroke-width="12" stroke="#25386f"/>
  <g clip-path="url(#b)">
    <g transform="translate(0 20)">
      <path data-name="Path 3383" d="M46.981 103.946v-9.112a11.291 11.291 0 0 1 1.744-6.155 10.618 10.618 0 0 1 4.847-4.12A76.855 76.855 0 0 1 66.319 80.1a50.023 50.023 0 0 1 11.68-1.357A49.416 49.416 0 0 1 89.631 80.1a77.533 77.533 0 0 1 12.7 4.459 10.9 10.9 0 0 1 4.9 4.12 11.06 11.06 0 0 1 1.793 6.155v9.112zM78 72.831a13.946 13.946 0 0 1-14.54-14.54 14.545 14.545 0 1 1 29.081 0 13.946 13.946 0 0 1-14.54 14.54m-25.2 25.3h50.405v-3.3a5.546 5.546 0 0 0-.92-3 5.069 5.069 0 0 0-2.279-2.035 65.415 65.415 0 0 0-11.732-4.175A46.882 46.882 0 0 0 78 84.555a47.55 47.55 0 0 0-10.324 1.066 64.836 64.836 0 0 0-11.777 4.169 4.8 4.8 0 0 0-2.23 2.035 5.769 5.769 0 0 0-.872 3zm25.2-31.116a8.454 8.454 0 1 0-6.25-2.472 8.476 8.476 0 0 0 6.253 2.472" fill="#fff"/>
      <animateTransform id="a" attributeName="transform" attributeType="XML" type="translate" from="0, 63" to="0, 0" begin="0s" dur="1s" fill="freeze"/>
    </g>
  </g>
</svg>
