<svg xmlns="http://www.w3.org/2000/svg" data-name="Group 526" viewBox="0 0 42 42"><defs><clipPath id="a"><path fill="none" d="M0 0h42v42H0z" data-name="Rectangle 822"/></clipPath></defs><g fill="#fff" clip-path="url(#a)" data-name="Group 342"><path d="M21 0a21 21 0 1 0 21 21A21 21 0 0 0 21 0m0 39.1A18.1 18.1 0 1 1 39.1 21 18.1 18.1 0 0 1 21 39.1" data-name="Path 3391"/><path d="m22.184 26.559 1.483 3.341-1.488-3.341" data-name="Path 3393"/><path d="m17.615 31.329.036.093 2.152-4.834-2.154 4.834Z" data-name="Path 3395"/><path d="m29.086 30.234-2.294-5.151 2.293 5.151Z" data-name="Path 3398"/><path d="m24.373 32.332-.768-1.725.768 1.725 1.308-3.4.8.306-.8-.306Z" data-name="Path 3399"/><path d="M19.6 26.445a1.1 1.1 0 0 0-.976-.2l-.106.029a2.041 2.041 0 0 1-.543.073 2.069 2.069 0 0 1-1.856-1.136 1.127 1.127 0 0 0-.39-.439l-2.153 4.836.421-.161 2.524-.968 1.094 2.852.036.093 2.152-4.834c-.032-.021-.067-.035-.1-.058Z" data-name="Path 3400"/><path d="m17.622 32.334-1.3-3.406-.681.261-2.724 1.046 2-4.483.5-1.129a1.072 1.072 0 0 0-.121-.029l-.079-.012c-.047-.008-.091-.025-.137-.036l-2.8 6.293 3.842-1.475 1.478 3.85 2.822-6.338a2.1 2.1 0 0 1-.322-.108Z" data-name="Path 3401"/><path d="M25.829 25.241a2.093 2.093 0 0 1-2.43 1.054l-.1-.03a1.123 1.123 0 0 0-.972.195l-.066.052c-.023.018-.051.031-.075.048l1.486 3.341.676 1.519 1.132-2.944 2.945 1.131-2.148-4.822a1.1 1.1 0 0 0-.448.456" data-name="Path 3402"/><path d="M26.657 24.655c-.018 0-.034.007-.05.01l.186.418 2.294 5.152-2.609-1-.8-.306-1.308 3.4-.77-1.722-1.72-3.863a2.1 2.1 0 0 1-.318.119l2.828 6.35 1.481-3.849 3.85 1.478-2.776-6.246c-.036.009-.069.023-.105.03Z" data-name="Path 3403"/><path d="m15.284 24.094.079.012a1.627 1.627 0 0 1 .25.058 1.592 1.592 0 0 1 .318.144 1.534 1.534 0 0 1 .19.132 1.605 1.605 0 0 1 .427.527l.008.016c.019.037.042.071.064.106a1.576 1.576 0 0 0 1.351.759 1.609 1.609 0 0 0 .425-.058l.087-.025a1.574 1.574 0 0 1 .7-.038 1.576 1.576 0 0 1 .368.117 1.556 1.556 0 0 1 .36.214l.062.049.029.023a1.569 1.569 0 0 0 .3.182 1.458 1.458 0 0 0 .149.05 1.694 1.694 0 0 0 .173.058 1.594 1.594 0 0 0 1.328-.3l.026-.02.026-.02.011-.009c.035-.028.075-.05.112-.075a1.591 1.591 0 0 1 .353-.182 1.572 1.572 0 0 1 .517-.088 1.541 1.541 0 0 1 .447.066l.059.017.029.008a1.561 1.561 0 0 0 .2.043h.021a1.555 1.555 0 0 0 .937-.161 1.571 1.571 0 0 0 .686-.672l.009-.02a.75.75 0 0 1 .065-.1 1.594 1.594 0 0 1 .618-.58 1.642 1.642 0 0 1 .251-.1c.026-.008.049-.022.075-.029a1.66 1.66 0 0 1 .185-.037l.077-.011.042-.007.047.002a1.594 1.594 0 0 0 1.275-1.492c0-.056 0-.113.005-.169a1.591 1.591 0 0 1 .616-1.242c.129-.1.258-.2.385-.313a1.605 1.605 0 0 0 .442-1.718 9.38 9.38 0 0 0-.3-.784 1.618 1.618 0 0 1 0-1.257q.164-.385.3-.784a1.605 1.605 0 0 0-.442-1.718 6.958 6.958 0 0 0-.385-.314 1.589 1.589 0 0 1-.616-1.241c0-.056 0-.112-.005-.168a1.6 1.6 0 0 0-1.355-1.506l-.077-.011a1.593 1.593 0 0 1-1.195-.848l-.009-.018a1.587 1.587 0 0 0-1.408-.849 1.6 1.6 0 0 0-.44.062l-.088.026a1.569 1.569 0 0 1-1.428-.279l-.063-.05a1.595 1.595 0 0 0-1.98.01l-.062.05a1.573 1.573 0 0 1-.994.355 1.556 1.556 0 0 1-.432-.061l-.087-.025a1.59 1.59 0 0 0-1.84.808l-.009.018a1.594 1.594 0 0 1-1.184.862l-.079.012a1.593 1.593 0 0 0-1.336 1.521v.191a1.56 1.56 0 0 1-.588 1.227c-.135.1-.268.215-.4.333a1.613 1.613 0 0 0-.421 1.724c.029.085.06.169.091.253q.081.22.173.435a1.583 1.583 0 0 1 0 1.229q-.092.216-.173.436c-.031.084-.062.168-.091.253a1.612 1.612 0 0 0 .421 1.723c.13.12.264.231.4.335a1.557 1.557 0 0 1 .588 1.227v.191a1.594 1.594 0 0 0 1.327 1.519h.005m-.615-6.736h.048a.826.826 0 0 1 .494.168.873.873 0 0 1 .091.075.835.835 0 0 1 .1.119.824.824 0 0 1 .147.516h-.047a.829.829 0 0 1-.829-.877Zm.167-1.08v-.009a.825.825 0 0 1 .429.186.8.8 0 0 1 .154.162.814.814 0 0 1 .121.272.834.834 0 0 1 .007.395.9.9 0 0 1-.125-.028.937.937 0 0 1-.457-.321.779.779 0 0 1-.041-.074.825.825 0 0 1-.088-.583m-.144 2.19a.811.811 0 0 1 .129-.015c.021 0 .041-.007.062-.007a.828.828 0 0 1 .822.732c-.014 0-.03 0-.045.005a.809.809 0 0 1-.146.017.83.83 0 0 1-.246-.038.839.839 0 0 1-.229-.112.812.812 0 0 1-.2-.2.826.826 0 0 1-.152-.381m.423 1.033a.827.827 0 0 1 .47.066.967.967 0 0 1 .276.208h.005c.011.013.019.028.029.041a.827.827 0 0 1 .134.258.841.841 0 0 1-.328.068.829.829 0 0 1-.794-.591.818.818 0 0 1 .132-.041.672.672 0 0 1 .077-.014m.38 1c.009 0 .017-.01.027-.013a.824.824 0 0 1 .239-.036.863.863 0 0 1 .1.013.75.75 0 0 1 .115.015.81.81 0 0 1 .126.049.825.825 0 0 1 .4.38.826.826 0 0 1-.67.108.82.82 0 0 1-.477-.353.867.867 0 0 1-.049-.076.846.846 0 0 1 .189-.088m.272 2.272a.855.855 0 0 1-.222-.642.81.81 0 0 1 .037-.181.823.823 0 0 1 .293-.411.829.829 0 0 1-.108 1.234m.111-1.235a.825.825 0 0 1 .566-.226h.074a.826.826 0 0 1 .593.33.837.837 0 0 1-.213.142.819.819 0 0 1-.354.083h-.074a.824.824 0 0 1-.592-.33m1.049-8.275a.879.879 0 0 1 .331-.592.849.849 0 0 1 .222.641.813.813 0 0 1-.056.226.83.83 0 0 1-.274.366.822.822 0 0 1-.126-.183.886.886 0 0 1-.1-.458m-.216 10.345a.769.769 0 0 1-.063-.058.822.822 0 0 1-.25-.445.887.887 0 0 1-.018-.09.83.83 0 0 1 .222-.641.868.868 0 0 1 .125.116.825.825 0 0 1 .2.477.8.8 0 0 1-.009.2.826.826 0 0 1-.213.437m.462-1.01a.823.823 0 0 1-.5-.176c-.021-.017-.044-.032-.064-.05a.829.829 0 0 1 .593-.331h.073a.825.825 0 0 1 .495.168.918.918 0 0 1 .074.057.83.83 0 0 1-.594.331.719.719 0 0 1-.073 0m.605-9.972a.848.848 0 0 1 .066-.168.8.8 0 0 1 .1-.146.841.841 0 0 1 .118-.116.818.818 0 0 1 .14-.089.828.828 0 0 1-.32 1.2.829.829 0 0 1-.132-.44.811.811 0 0 1 .024-.23m.006 11.64-.012-.007a.827.827 0 0 1-.434-.871.843.843 0 0 1 .124-.318l.012.007a.827.827 0 0 1 .309 1.189m.163-1.066h-.027c-.026 0-.051-.009-.077-.011a.831.831 0 0 1-.378-.125.829.829 0 0 1 1.2-.32.829.829 0 0 1-.527.428.812.812 0 0 1-.187.025m1.006 1.526a.867.867 0 0 1-.491-.408c-.006-.013-.016-.023-.022-.036a.794.794 0 0 1-.041-.121.822.822 0 0 1 .008-.486c.008-.024.012-.048.022-.072a.868.868 0 0 1 .158.066.83.83 0 0 1 .417.893.816.816 0 0 1-.051.163m.156-1.135h-.014a.821.821 0 0 1-.335.074.835.835 0 0 1-.329-.068.828.828 0 0 1 .962-.574.865.865 0 0 1 .161.05.868.868 0 0 1-.444.513m1.075 1.384a.812.812 0 0 1-.161-.036h-.006c-.024-.008-.046-.021-.069-.031a.831.831 0 0 1-.119-.063.807.807 0 0 1-.227-.216.817.817 0 0 1-.139-.577.768.768 0 0 1 .011-.089.789.789 0 0 1 .1.023.808.808 0 0 1 .622.71.829.829 0 0 1-.013.282m.38-.849a.828.828 0 0 1 .828-.876h.047a.862.862 0 0 1-.242.635.863.863 0 0 1-.1.083.837.837 0 0 1-.166.1.828.828 0 0 1-.311.061h-.049Zm1.237-.69a.827.827 0 0 1 .582-.347.785.785 0 0 1 .019.148v.021a.823.823 0 0 1-.587.812.861.861 0 0 1-.145.032.8.8 0 0 1-.021-.158.822.822 0 0 1 .148-.509m.887 1.38a.832.832 0 0 1-.191.022.815.815 0 0 1-.206-.031.876.876 0 0 1-.09-.031.834.834 0 0 1-.179-.088.879.879 0 0 1-.348-.583.82.82 0 0 1 .11-.013c.028 0 .054-.01.082-.01a.823.823 0 0 1 .228.035c.019.005.036.014.054.021a.794.794 0 0 1 .54.677m.074-.928a.814.814 0 0 1-.05-.159c0-.025 0-.05-.007-.075a.87.87 0 0 1-.008-.108.829.829 0 0 1 .59-.777.829.829 0 0 1-.01.678.844.844 0 0 1-.09.149.829.829 0 0 1-.424.3m1.124.526a.839.839 0 0 1-.329.068.831.831 0 0 1-.794-.591.835.835 0 0 1 .505-.049l.023.008a.859.859 0 0 1 .151.051.829.829 0 0 1 .453.511Zm1.108-.6a.836.836 0 0 1-.124.058.818.818 0 0 1-.331.079.822.822 0 0 1-.676-.355.846.846 0 0 1-.065-.1l.032-.02-.025.013h-.007a.833.833 0 0 1 .2-1.121.84.84 0 0 1 .118-.076v.009a.828.828 0 0 1 .111.612c0 .016 0 .033-.007.049a.829.829 0 0 1-.381.5.846.846 0 0 1 .155-.063.828.828 0 0 1 .254-.044.869.869 0 0 1 .215.028c.023.006.042.017.064.025a.818.818 0 0 1 .391.293.842.842 0 0 1 .071.111m.639-.592c-.02.005-.039.013-.06.018h-.009a.794.794 0 0 1-.15.015h-.074a.829.829 0 0 1-.593-.331l.025-.022-.026.021c-.012-.013-.021-.029-.033-.043a.818.818 0 0 1-.186-.419.83.83 0 0 1 0-.179.819.819 0 0 1 .034-.169v-.018a.832.832 0 0 1 .291-.406.824.824 0 0 1 .013 1.119.861.861 0 0 1-.078.081.851.851 0 0 1 .222-.127c.007 0 .013-.009.021-.012a.821.821 0 0 1 .283-.05h.073a.824.824 0 0 1 .488.216.856.856 0 0 1 .106.114.834.834 0 0 1-.1.08.82.82 0 0 1-.247.113m.591-.8a.733.733 0 0 1-.074 0 .83.83 0 0 1-.309-.06.842.842 0 0 1-.259-.165l.007-.009.012-.016-.019.021a.825.825 0 0 1-.2-.223.81.81 0 0 1-.121-.372.827.827 0 0 1 0-.149.807.807 0 0 1 .077-.276.815.815 0 0 1 .142-.217.83.83 0 0 1 .226.255.817.817 0 0 1 .051.7.836.836 0 0 1-.128.228.826.826 0 0 1 .193-.16.813.813 0 0 1 .361-.123h.074c.025 0 .038 0 .056.005a.852.852 0 0 1 .119.015.83.83 0 0 1 .392.206.827.827 0 0 1-.592.33m.729-.97a.826.826 0 0 1-.215.029.815.815 0 0 1-.267-.049.835.835 0 0 1-.188-.088l.012-.022.006-.011-.02.032a.826.826 0 0 1-.428-.525.817.817 0 0 1-.014-.089c0-.03-.012-.059-.014-.089a.817.817 0 0 1 .034-.257.838.838 0 0 1 .1-.235.83.83 0 0 1 .429.527.855.855 0 0 1 .027.163v.053a.828.828 0 0 1-.1.386c0 .005 0 .012-.007.017a.829.829 0 0 1 1.169-.27.829.829 0 0 1-.526.429m-.973-5.93a.829.829 0 0 1 1.122.523.83.83 0 0 1-.679-.01.831.831 0 0 1-.444-.513m.781 4.1a.755.755 0 0 1 .043.072.827.827 0 0 1 .01.678.839.839 0 0 1-.127-.053.8.8 0 0 1-.459-.687.89.89 0 0 1 .062-.382h.01a.824.824 0 0 1 .459.368m-.3-1.307a.829.829 0 0 1 .71 1.014.839.839 0 0 1-.325-.111.828.828 0 0 1-.257-.238.867.867 0 0 1-.07-.127.8.8 0 0 1-.058-.539m1.483 1.541a.83.83 0 0 1-.444.514.817.817 0 0 1-.21.062.8.8 0 0 1-.141.016.827.827 0 0 1-.217-.033.872.872 0 0 1-.111-.035.823.823 0 0 1 .341-.451.861.861 0 0 1 .1-.062.827.827 0 0 1 .35-.078.779.779 0 0 1 .126.013.824.824 0 0 1 .2.054m.211-1.064a.825.825 0 0 1-.31.416.794.794 0 0 1-.164.081.829.829 0 0 1-.31.069.814.814 0 0 1-.107-.014c-.026 0-.052 0-.077-.009a.806.806 0 0 1 .75-.722.7.7 0 0 1 .072-.011.777.777 0 0 1 .122.015c.023 0 .047 0 .071.008a.829.829 0 0 1-.038.166m.068-1.422a.883.883 0 0 1 0 .088.818.818 0 0 1-.238.545.8.8 0 0 1-.106.087.823.823 0 0 1-.48.157h-.054v-.023.023h-.047a.831.831 0 0 1-.588-.243.823.823 0 0 1-.171-.258c-.006-.013-.014-.025-.019-.039v-.01a.833.833 0 0 1-.048-.327h.048a.828.828 0 0 1 .586.243c.021.021.037.045.056.068s.034.038.047.058a.837.837 0 0 1 .139.44.83.83 0 0 1 .829-.808h.048m-.189-1.249a.847.847 0 0 1 .022.169.83.83 0 0 1-.732.845q0-.018-.007-.036v.036a.823.823 0 0 1-.964-.516.835.835 0 0 1-.05-.195.764.764 0 0 1 .506.049.814.814 0 0 1 .16.079.825.825 0 0 1 .34.526.829.829 0 0 1 .722-.959m-.4-1.2a.829.829 0 0 1-.523 1.122.822.822 0 0 1 .331-1.033.842.842 0 0 1 .192-.088m-1.031-.583a.826.826 0 0 1 .429-.525.846.846 0 0 1-.321 1.2.832.832 0 0 1-.108-.671m.106.672a.831.831 0 0 1-.122.057.814.814 0 0 1-.333.08.835.835 0 0 1-.528-.19.837.837 0 0 1-.209-.263c.012-.007.026-.01.038-.018a.821.821 0 0 1 1.159.338m-.462-2.184a.826.826 0 0 1 .223.641.815.815 0 0 1-.181.444.85.85 0 0 1-.149.149l-.005-.006-.013-.014.017.022c-.013.013-.029.022-.043.034a.824.824 0 0 1-.525.192h-.073a.788.788 0 0 1-.128-.026.822.822 0 0 1-.444-.284c-.006-.007-.014-.013-.02-.021a.885.885 0 0 1 .567-.225h.074a.827.827 0 0 1 .544.273l.008.007a.829.829 0 0 1-.181-.593.818.818 0 0 1 .066-.246.827.827 0 0 1 .265-.346m-1.4.175a.825.825 0 0 1 .525.188.832.832 0 0 1-.063-1.2.544.544 0 0 1 .043.04.809.809 0 0 1 .211.97.833.833 0 0 1-.146.224l-.028-.022.027.024a.831.831 0 0 1-.592.33h-.119a.866.866 0 0 1-.114-.011.829.829 0 0 1-.312-.135.955.955 0 0 1-.1-.075.83.83 0 0 1 .209-.193.8.8 0 0 1 .161-.093c.012 0 .022-.011.034-.015a.831.831 0 0 1 .177-.036h.073m-.746-.606a.837.837 0 0 1 .405.106.83.83 0 0 1-.269-1.168.83.83 0 0 1 .131.084.9.9 0 0 1 .3.443.856.856 0 0 1-.109.67l-.033-.017.033.02a.83.83 0 0 1-.34.351.817.817 0 0 1-.186.077.826.826 0 0 1-.67-.108.836.836 0 0 1 .154-.206.811.811 0 0 1 .587-.251m-1.041-1.523a.829.829 0 0 1 .524 1.122.841.841 0 0 1-.253-.131.818.818 0 0 1-.271-.991m-.156 1.135a.82.82 0 0 1 .35-.078c.02 0 .04 0 .06.006a.825.825 0 0 1 .224.047c.015.005.03.008.045.014a.834.834 0 0 1-.111.223.815.815 0 0 1-.683.368.828.828 0 0 1-.168-.017c-.017 0-.032-.011-.049-.015a.84.84 0 0 1-.112-.035.838.838 0 0 1 .111-.223.82.82 0 0 1 .333-.29m-1.075-1.384a.826.826 0 0 1 .463.212.808.808 0 0 1 .12.135.82.82 0 0 1 .14.382.832.832 0 0 1-.013.284.827.827 0 0 1-.323-.109.8.8 0 0 1-.158-.123.8.8 0 0 1-.229-.783m-.2 1.4a.824.824 0 0 1 .239-.26.8.8 0 0 1 .106-.052.774.774 0 0 1 .561-.076.824.824 0 0 1-.249.5.763.763 0 0 1-.1.087.853.853 0 0 1-.1.047.821.821 0 0 1-.379.1h-.013a.842.842 0 0 1-.179-.021.824.824 0 0 1 .109-.323m-.818-.8a.857.857 0 0 1-.071-.088.831.831 0 0 1-.12-.208c0-.01 0-.02-.008-.03a.83.83 0 0 1-.042-.306h.049a.822.822 0 0 1 .491.166.8.8 0 0 1 .094.077.828.828 0 0 1 .242.634.827.827 0 0 1-.006.126v.045a.831.831 0 0 1-.234.462.817.817 0 0 1-.273.181h-.015a.828.828 0 0 1-.3.056h-.048a.83.83 0 0 1 .129-.493.8.8 0 0 1 .113-.14.82.82 0 0 1 .453-.221.772.772 0 0 1 .134-.015.83.83 0 0 1-.445-.139.84.84 0 0 1-.127-.1m-.193 12.91a.836.836 0 0 1 .174.02.824.824 0 0 1 .653.857h-.048a.828.828 0 0 1-.586-.242c-.007-.007-.012-.017-.02-.025a.819.819 0 0 1-.178-.3.832.832 0 0 1-.044-.31h.048m-.335-.416a.842.842 0 0 1-.133.117.71.71 0 0 1-.567.139.953.953 0 0 1-.1-.011.828.828 0 0 1 .248-.5.848.848 0 0 1 .1-.087.826.826 0 0 1 .213-.1.817.817 0 0 1 .262-.046.827.827 0 0 1 .092.011.837.837 0 0 1 .1.012.142.142 0 0 0 0 .014.823.823 0 0 1-.209.45m-.769-12.961a1.228 1.228 0 0 1 .463.144l.011.006a.827.827 0 0 1 .348.582l-.03.006h.03a.827.827 0 0 1-.534.973.873.873 0 0 1-.176.042.829.829 0 0 1 .5-.963.89.89 0 0 1 .151-.043.465.465 0 0 1-.218 0 .808.808 0 0 1-.263-.074.738.738 0 0 1-.477-.646.9.9 0 0 1 .15-.017h.042m-.247 1.544a.838.838 0 0 1-.028.084.853.853 0 0 1-.08.131.829.829 0 0 1-.434.313.824.824 0 0 1-.057-.424.814.814 0 0 1 .068-.254c.01-.022.025-.04.036-.06a.752.752 0 0 1 .477-.383.813.813 0 0 1 .018.594m-.82-1.202a.831.831 0 0 1 .223.035.873.873 0 0 1 .127.043.828.828 0 0 1 .444.514.841.841 0 0 1-.328.068.83.83 0 0 1-.794-.591.845.845 0 0 1 .194-.054.872.872 0 0 1 .134-.014m-.982.535a.853.853 0 0 1 .215.028.828.828 0 0 1 .526.429.831.831 0 0 1-.455.136.811.811 0 0 1-.215-.029c-.01 0-.018-.007-.028-.011a.819.819 0 0 1-.5-.418.837.837 0 0 1 .457-.135m-1.442.921a.827.827 0 0 1 .567-.226h.074a.864.864 0 0 1 .592.33.852.852 0 0 1-.567.225h-.073a.818.818 0 0 1-.4-.151.829.829 0 0 1-.192-.18m-.506.685a.826.826 0 0 1 .264-.073h.073a.821.821 0 0 1 .224.035.838.838 0 0 1 .327.178c.005 0 .012.008.017.013l-.012.015-.006.008.015-.017a.83.83 0 0 1 .108 1.234.83.83 0 0 1-.236-1.056.856.856 0 0 1 .084-.128.828.828 0 0 1-.551.279h-.074a.823.823 0 0 1-.504-.184c-.02-.016-.041-.03-.06-.047a.828.828 0 0 1 .329-.257m-.46.9a.825.825 0 0 1 .67.108c0 .009-.009.017-.014.025v.006l.019-.03a.765.765 0 0 1 .1.066.817.817 0 0 1 .3.39.686.686 0 0 1 .028.071.857.857 0 0 1-.072.6.731.731 0 0 1-.036.071.792.792 0 0 1-.078-.049.807.807 0 0 1-.373-.77.83.83 0 0 1 .1-.328.788.788 0 0 1-.671.4c-.014 0-.028.005-.042.005a.833.833 0 0 1-.456-.136.881.881 0 0 1 .527-.428m-.986 1.6a.872.872 0 0 1 .444-.513.827.827 0 0 1 .35-.078.841.841 0 0 1 .328.068l-.012.038.008-.021.006-.016a.883.883 0 0 1 .513.444.845.845 0 0 1 .054.16.824.824 0 0 1-.044.519.838.838 0 0 1-.249-.129.808.808 0 0 1-.323-.825.9.9 0 0 1 .03-.118.849.849 0 0 1-.11.181.838.838 0 0 1-.087.113.817.817 0 0 1-.229.168.8.8 0 0 1-.108.037.786.786 0 0 1-.57-.027m.1.649a.822.822 0 0 1 .474-.155.864.864 0 0 1 .192.022.829.829 0 0 1-.823.733.853.853 0 0 1-.191-.022.823.823 0 0 1 .348-.582m-.33 1.839h-.048a.777.777 0 0 1 0-.083.818.818 0 0 1 .237-.551.827.827 0 0 1 .586-.243h.048v.082a.817.817 0 0 1-.205.511c-.011.013-.02.028-.032.04a.852.852 0 0 1-.13.107.828.828 0 0 1-.456.137m.239.635c.01-.018.018-.037.03-.054a.824.824 0 0 1 .416-.311.81.81 0 0 1 .166-.037.829.829 0 0 1-.544.977.837.837 0 0 1-.166.038.93.93 0 0 1-.013-.1.819.819 0 0 1 .111-.515m.3 1.809a.873.873 0 0 1-.039-.123.8.8 0 0 1 .207-.777.826.826 0 0 1 .355-.221.837.837 0 0 1 .068.334.848.848 0 0 1-.591.788m.6 1.109a.837.837 0 0 1-.079-.152c0-.009 0-.018-.007-.028a.822.822 0 0 1 .14-.8.835.835 0 0 1 .267-.212.826.826 0 0 1 .11.657.124.124 0 0 1 0 .013.8.8 0 0 1-.051.133c-.005.011-.008.024-.014.035s-.014.021-.021.032a.826.826 0 0 1-.343.326" data-name="Path 3404"/><path d="M17.343 25.721a1.574 1.574 0 0 1-.719-.628 1.574 1.574 0 0 0 .719.628" data-name="Path 3405"/><path d="m16.551 24.968.008.016-.008-.016a1.605 1.605 0 0 0-.427-.527 1.6 1.6 0 0 1 .426.527" data-name="Path 3406"/><path d="M19.185 25.731a1.569 1.569 0 0 1 .368.117 1.569 1.569 0 0 0-.368-.117" data-name="Path 3407"/><path d="M20.626 26.425a1.651 1.651 0 0 1-.173-.058 1.682 1.682 0 0 0 .172.058" data-name="Path 3409"/><path d="M21.367 26.413a1.588 1.588 0 0 0 .318-.118 1.56 1.56 0 0 1-.318.119" data-name="Path 3410"/><path d="M22.129 25.999a1.591 1.591 0 0 1 .353-.182 1.58 1.58 0 0 0-.353.182" data-name="Path 3411"/><path d="M24.696 25.706a1.555 1.555 0 0 1-.937.161 1.555 1.555 0 0 0 .937-.161" data-name="Path 3412"/><path d="M26.074 24.33a1.6 1.6 0 0 0-.618.58 1.6 1.6 0 0 1 .618-.58" data-name="Path 3413"/><path d="M23.738 25.863a1.54 1.54 0 0 1-.2-.043l-.029-.008.029.008a1.557 1.557 0 0 0 .2.043" data-name="Path 3414"/><path d="m26.706 24.147.038-.006-.037.006" data-name="Path 3415"/><path d="M26.074 24.33a1.548 1.548 0 0 1 .251-.1 1.593 1.593 0 0 0-.251.1" data-name="Path 3417"/></g></svg>