<svg xmlns="http://www.w3.org/2000/svg" data-name="Group 527" viewBox="0 0 42 42">
  <defs>
    <clipPath id="a">
      <path fill="none" d="M0 0h42v42H0z" data-name="Rectangle 823"/>
    </clipPath>
  </defs>
  <g fill="#fff" clip-path="url(#a)" data-name="Group 344">
    <path d="M21 0a21 21 0 1 0 21 21A21 21 0 0 0 21 0m0 39.1A18.1 18.1 0 1 1 39.1 21 18.1 18.1 0 0 1 21 39.1" data-name="Path 3418"/>
    <path d="M13.05 31.915a.515.515 0 0 0 .033.086.515.515 0 0 1-.033-.086" data-name="Path 3419"/>
    <path d="M13.034 31.779a.342.342 0 0 0 .015.136.386.386 0 0 1-.015-.136" data-name="Path 3420"/>
    <path d="M33.519 17.727a.4.4 0 0 0 .123-.289.406.406 0 0 0-.348-.4l-2.179-.316-5.853-.85a.406.406 0 0 1-.306-.222l-3.593-7.278a.4.4 0 0 0-.727 0l-3.592 7.278a.408.408 0 0 1-.306.222l-8.032 1.167a.405.405 0 0 0-.225.692l5.812 5.665a.4.4 0 0 1 .117.359l-1.372 8v.028a.375.375 0 0 0 .015.136.442.442 0 0 0 .033.086.442.442 0 0 1-.033-.086.4.4 0 0 0 .382.308.428.428 0 0 1-.07-.015.381.381 0 0 0 .07.015.4.4 0 0 0 .182-.044h.005l7.184-3.777a.4.4 0 0 1 .377 0l7.185 3.777h.005a.4.4 0 0 0 .182.044.406.406 0 0 0 .4-.463v-.012l-1.373-8a.446.446 0 0 1-.005-.068.4.4 0 0 1 .123-.291Zm-15.126-.624a1.071 1.071 0 0 1-1.005.7h-.053l-7.341-.346 6.95-.635a1.071 1.071 0 0 0 .855-.575l3.2-6.2Z" data-name="Path 3421"/>
    <path d="M13.035 31.779a.333.333 0 0 0 .015.136.342.342 0 0 1-.015-.136" data-name="Path 3422"/>
  </g>
</svg>
