<svg xmlns="http://www.w3.org/2000/svg" data-name="Group 528" viewBox="0 0 42 42">
  <defs>
    <clipPath id="a">
      <path fill="none" d="M0 0h42v42H0z" data-name="Rectangle 824"/>
    </clipPath>
  </defs>
  <g fill="#fff" clip-path="url(#a)" data-name="Group 346">
    <path d="M21 0a21 21 0 1 0 21 21A21 21 0 0 0 21 0m0 39.1A18.1 18.1 0 1 1 39.1 21 18.1 18.1 0 0 1 21 39.1" data-name="Path 3423"/>
    <path d="M26.23 9.171a7.77 7.77 0 0 0-2.928.571 7.663 7.663 0 0 0-2.3 1.451 7.781 7.781 0 0 0-10.908 11.082 2.246 2.246 0 0 0 .466 2.5l.464.464a2.234 2.234 0 0 0 1.343.646 2.218 2.218 0 0 0 .646 1.343l.461.463a2.233 2.233 0 0 0 1.346.646 2.217 2.217 0 0 0 .646 1.343l.461.464a2.251 2.251 0 0 0 1.346.646 2.222 2.222 0 0 0 .647 1.343l.461.464a2.249 2.249 0 0 0 1.593.659 2.224 2.224 0 0 0 1.039-.253 2.352 2.352 0 0 0 2.665-.461l.316-.316a2.34 2.34 0 0 0 .679-1.458 2.324 2.324 0 0 0 1.458-.679l.316-.316a2.335 2.335 0 0 0 .673-1.4 2.2 2.2 0 0 0 1.37-.644l.411-.409a2.341 2.341 0 0 0 .678-1.459 2.321 2.321 0 0 0 1.458-.678l.314-.316a2.341 2.341 0 0 0 .515-2.547 7.776 7.776 0 0 0-.18-10.909 7.758 7.758 0 0 0-5.456-2.233m-7.651 8.081a1.4 1.4 0 0 1-.513-.875c-.127-.653-.222-.91 1.66-2.426l1.743-1.755.03-.032a6.68 6.68 0 0 1 4.705-1.95h.02a6.723 6.723 0 0 1 6.733 6.7v.021a6.675 6.675 0 0 1-1.971 4.764l-.173.178-7.06-7.056.169-.168a.207.207 0 0 0 .063-.149.21.21 0 0 0-.063-.149.2.2 0 0 0-.148-.063.212.212 0 0 0-.15.063l-2.89 2.89a1.525 1.525 0 0 1-2.155 0m-9.537-.292a6.729 6.729 0 0 1 6.7-6.735h.021a6.688 6.688 0 0 1 4.765 1.971l.18.179-2.426 2.428a1.945 1.945 0 1 0 2.75 2.75l2.423-2.424 7.158 7.152a1.3 1.3 0 0 1 0 1.839l-.317.314a1.3 1.3 0 0 1-1.839 0l-5.914-5.912a.208.208 0 0 0-.148-.062.214.214 0 0 0-.15.062.216.216 0 0 0-.06.149.213.213 0 0 0 .06.149l5.914 5.914a1.3 1.3 0 0 1 0 1.836l-.41.413a1.173 1.173 0 0 1-1.651 0l-6.006-6.009a.212.212 0 0 0-.15-.062.216.216 0 0 0-.151.062.214.214 0 0 0 0 .3l6.008 6.008a1.531 1.531 0 0 0 .247.2 1.413 1.413 0 0 1-.266 1.617l-.317.317a1.4 1.4 0 0 1-.995.413 1.378 1.378 0 0 1-.67-.172 1.811 1.811 0 0 0-.249-.316l-.019-.019a2.018 2.018 0 0 0 .05-.442 1.948 1.948 0 0 0-1.946-1.946 2.044 2.044 0 0 0-.443.051l-.115-.116a1.968 1.968 0 0 0 .049-.436 1.943 1.943 0 0 0-2.385-1.9l-.118-.118a1.959 1.959 0 0 0-.518-1.818 1.934 1.934 0 0 0-1.375-.568 2 2 0 0 0-.606.094 1.949 1.949 0 0 0-.472-1.979 1.949 1.949 0 0 0-2.75 0l-1.73 1.726-.161-.161a6.687 6.687 0 0 1-1.971-4.729v-.021m1.913 6.223a1.193 1.193 0 0 1 .35-.846l1.9-1.9a1.523 1.523 0 0 1 2.153 2.155l-1.893 1.9a1.2 1.2 0 0 1-.847.351 1.187 1.187 0 0 1-.844-.351l-.464-.464a1.192 1.192 0 0 1-.35-.846m2.456 2.455a1.193 1.193 0 0 1 .35-.846l1.9-1.9a1.523 1.523 0 0 1 2.153 2.155l-1.9 1.9a1.2 1.2 0 0 1-1.692 0l-.461-.464a1.19 1.19 0 0 1-.35-.846m2.452 2.455a1.179 1.179 0 0 1 .351-.848l1.9-1.9a1.523 1.523 0 1 1 2.144 2.161l-1.9 1.9a1.187 1.187 0 0 1-.845.351 1.2 1.2 0 0 1-.847-.351l-.461-.464a1.177 1.177 0 0 1-.351-.845m2.457 2.448a1.193 1.193 0 0 1 .348-.846l1.9-1.9a1.528 1.528 0 0 1 2.156 0 1.52 1.52 0 0 1 0 2.155l-1.9 1.9a1.2 1.2 0 0 1-1.692 0l-.464-.464a1.2 1.2 0 0 1-.348-.846m3.7 1.631a1.3 1.3 0 0 1-.713-.212l1.713-1.706a1.953 1.953 0 0 0 .354-.485 1.3 1.3 0 0 1-.113 1.708l-.317.317a1.287 1.287 0 0 1-.919.38" data-name="Path 3424"/>
  </g>
</svg>
