<?xml version="1.0" standalone="no"?>
<!DOCTYPE svg PUBLIC "-//W3C//DTD SVG 20010904//EN"
 "http://www.w3.org/TR/2001/REC-SVG-20010904/DTD/svg10.dtd">
<svg version="1.0" xmlns="http://www.w3.org/2000/svg"
 width="70.000000pt" height="70.000000pt" viewBox="0 0 70.000000 70.000000"
 preserveAspectRatio="xMidYMid meet">
<metadata>
Created by potrace 1.14, written by Peter Selinger 2001-2017
</metadata>
<g transform="translate(0.000000,70.000000) scale(0.100000,-0.100000)"
fill="#000000" stroke="none">
<path d="M145 611 c-44 -27 -71 -60 -97 -116 -31 -69 -32 -218 -1 -285 27 -61
65 -104 109 -125 33 -16 50 -16 188 -5 83 6 168 16 188 21 87 22 141 109 141
224 -1 77 -12 113 -49 163 -35 45 -79 65 -235 106 -153 41 -201 44 -244 17z
m45 -96 c0 -85 -6 -87 -65 -25 l-30 31 37 35 c21 19 42 34 48 34 6 0 10 -31
10 -75z m109 49 c17 -14 31 -31 31 -38 0 -7 -18 -30 -40 -51 l-40 -39 0 77 c0
42 4 77 9 77 5 0 23 -12 40 -26z m153 -30 c82 -21 112 -37 142 -77 62 -80 46
-236 -28 -295 -18 -13 -54 -22 -123 -30 -53 -6 -99 -9 -102 -7 -2 3 3 13 12
23 28 31 55 104 62 168 8 64 -12 168 -40 211 -19 29 -19 37 0 29 9 -3 43 -13
77 -22z m-73 -131 c1 -8 -13 -13 -36 -13 l-37 0 29 30 c26 27 30 29 37 13 3
-10 7 -24 7 -30z m-269 12 l23 -25 -36 0 c-29 0 -37 4 -37 18 0 39 18 41 50 7z
m149 -1 c14 -18 21 -41 21 -69 0 -36 -5 -48 -31 -69 -28 -24 -32 -25 -54 -10
-47 31 -51 127 -8 160 27 20 49 17 72 -12z m-129 -99 c0 -11 -55 -53 -62 -48
-5 2 -8 15 -8 29 0 21 5 24 35 24 19 0 35 -2 35 -5z m245 -22 c-9 -39 -12 -39
-40 -13 -34 32 -32 40 11 40 34 0 36 -1 29 -27z m-185 -103 c0 -82 -12 -89
-62 -39 l-31 30 39 40 c21 21 42 39 46 39 4 0 8 -31 8 -70z m107 38 c39 -38
41 -51 8 -83 -43 -44 -55 -34 -55 45 0 39 3 70 7 70 4 0 22 -14 40 -32z"/>
<path d="M204 375 c-7 -30 2 -75 16 -75 5 0 12 11 16 25 7 30 -2 75 -16 75 -5
0 -12 -11 -16 -25z"/>
</g>
</svg>
