<svg xmlns="http://www.w3.org/2000/svg" width="20" height="19" viewBox="0 0 20 19">
  <path id="business_center_FILL0_wght400_GRAD0_opsz48" d="M5.5,23a1.439,1.439,0,0,1-1.05-.45A1.439,1.439,0,0,1,4,21.5V9.275a1.439,1.439,0,0,1,.45-1.05,1.439,1.439,0,0,1,1.05-.45h4.75V5.5a1.439,1.439,0,0,1,.45-1.05A1.439,1.439,0,0,1,11.75,4h4.5a1.439,1.439,0,0,1,1.05.45,1.439,1.439,0,0,1,.45,1.05V7.775H22.5a1.538,1.538,0,0,1,1.5,1.5V21.5A1.538,1.538,0,0,1,22.5,23ZM11.75,7.775h4.5V5.5h-4.5Zm10.75,8.95H16.275v1.5h-4.5v-1.5H5.5V21.5h17Zm-9.225,0h1.5v-1.5h-1.5ZM5.5,15.225h6.275v-1.5h4.5v1.5H22.5V9.275H5.5ZM14,15.975Z" transform="translate(-4 -4)"/>
</svg>
