<?xml version="1.0" encoding="UTF-8" standalone="no"?>
<svg width="156" height="156" viewBox="0 0 156 156" version="1.1" xmlns="http://www.w3.org/2000/svg">
  <path data-name="Path 3375" d="M 78,0 A 78,78 0 1 1 0,78 78,78 0 0 1 78,0" fill="#25386f" />
  <path data-name="Path 3376" d="m 20.7,70.302 a 7.7,7.7 0 1 1 -7.7,7.7 7.7,7.7 0 0 1 7.7,-7.7 z" fill="none" stroke="#5ab0e1" stroke-width="6" transform="translate(47,0.0)">
    <animateTransform id="step0" attributeName="transform" attributeType="XML" type="translate" from="47" to="-5" begin="0" dur="3s" fill="freeze" />
  </path>
  <path data-name="Path 3377" d="m 132.7,70.302 a 7.7,7.7 0 1 1 -7.7,7.7 7.7,7.7 0 0 1 7.7,-7.7 z" fill="none" stroke="#5ab0e1" stroke-width="6" transform="translate(-41,0.0)">
    <animateTransform id="step0" attributeName="transform" attributeType="XML" type="translate" from="-41" to="5" begin="0" dur="3s" fill="freeze"/>
  </path>
  <clipPath id="clip1">
    <rect x="30" y="68" width="48" height="20" fill="white"/>
  </clipPath>
  <g clip-path="url(#clip1)">
    <g id="g1903" transform="translate(43 0)">
      <line data-name="Line 2" x2="78" fill="none" stroke="#ffffff" stroke-width="4" x1="43" y1="78" y2="78"/>
      <path data-name="Path 3378" d="M 48.109,85.287 40.822,78 48.109,70.713" fill="none" stroke="#ffffff" stroke-width="4" />
      <animateTransform id="step1" attributeName="transform" attributeType="XML" type="translate" from="43, 0" to="0, 0" begin="step0.end" dur="2s" fill="freeze"/>
    </g>
  </g>
  <clipPath id="clip2">
    <rect x="78" y="68" width="48" height="20" fill="white"/>
  </clipPath>
  <g clip-path="url(#clip2)">
    <g id="g1899" transform="translate(-43 0)">
      <line data-name="Line 2" x2="113.00001" fill="none" stroke="#ffffff" stroke-width="4" x1="78" y1="78" y2="78"/>
      <path data-name="Path 3379" d="M 107.73,70.713 115.017,78 107.73,85.287" fill="none" stroke="#ffffff" stroke-width="4"/>
      <animateTransform id="step1" attributeName="transform" attributeType="XML" type="translate" from="-43, 0" to="0, 0" begin="step0.end" dur="2s" fill="freeze"/>
    </g>
  </g>
</svg>
