<svg id="Group_137" data-name="Group 137" xmlns="http://www.w3.org/2000/svg" xmlns:xlink="http://www.w3.org/1999/xlink" width="35.159" height="83.99" viewBox="0 0 35.159 83.99">
  <defs>
    <clipPath id="clip-path">
      <rect id="Rectangle_49" data-name="Rectangle 49" width="35.159" height="83.99"/>
    </clipPath>
  </defs>
  <g id="Group_53" data-name="Group 53" clip-path="url(#clip-path)">
    <path id="Path_70" data-name="Path 70" d="M0,107.18V124.76a17.579,17.579,0,1,0,35.159,0V107.18A17.579,17.579,0,1,0,0,107.18ZM17.579,93.507A13.713,13.713,0,0,1,31.252,107.18v17.579a13.672,13.672,0,1,1-27.345,0V107.18A13.713,13.713,0,0,1,17.579,93.506Z" transform="translate(0 -73.975)"/>
    <path id="Path_71" data-name="Path 71" d="M91.554,160.967a1.959,1.959,0,0,0,1.953-1.953v-5.86a1.953,1.953,0,0,0-3.906,0v5.86a1.959,1.959,0,0,0,1.953,1.953" transform="translate(-73.975 -124.832)"/>
    <path id="Path_72" data-name="Path 72" d="M67.068,439.4a1.889,1.889,0,0,0,2.735,0l4.883-4.883a1.934,1.934,0,0,0-2.735-2.735L68.436,435.3l-3.516-3.516a1.934,1.934,0,0,0-2.735,2.735Z" transform="translate(-50.856 -356)"/>
    <path id="Path_73" data-name="Path 73" d="M67.069.586,62.186,5.47a1.888,1.888,0,0,0,0,2.735,1.888,1.888,0,0,0,2.735,0l3.516-3.516L71.952,8.2a1.888,1.888,0,0,0,2.734,0,1.888,1.888,0,0,0,0-2.735L69.8.587a1.888,1.888,0,0,0-2.735,0Z" transform="translate(-50.857 0)"/>
  </g>
</svg>
