<svg xmlns="http://www.w3.org/2000/svg" width="19" height="12.292" viewBox="0 0 19 12.292">
  <path id="group_add_FILL0_wght400_GRAD0_opsz48_1_" data-name="group_add_FILL0_wght400_GRAD0_opsz48 (1)" d="M9.381,280.77a4.587,4.587,0,0,0,.762-1.306,5.064,5.064,0,0,0,0-3.127,4.587,4.587,0,0,0-.762-1.306,3.205,3.205,0,0,1,2.642.455,3.131,3.131,0,0,1,0,4.829A3.206,3.206,0,0,1,9.381,280.77Zm4.275,6.452v-1.86a3.632,3.632,0,0,0-.515-1.88,3.9,3.9,0,0,0-1.781-1.465,12.006,12.006,0,0,1,4.681,1.267,2.439,2.439,0,0,1,1.257,2.078v1.86Zm2.177-5.72v-1.979H13.854v-1.187h1.979v-1.979h1.188v1.979H19v1.188H17.021V281.5Zm-9.6-.633a2.97,2.97,0,1,1,0-5.937,2.97,2.97,0,1,1,0,5.938ZM0,287.222v-1.86a2.282,2.282,0,0,1,1.346-2.1,15.665,15.665,0,0,1,2.543-.91,9.72,9.72,0,0,1,2.345-.277,9.6,9.6,0,0,1,2.335.277,15.814,15.814,0,0,1,2.533.91,2.311,2.311,0,0,1,.99.841,2.216,2.216,0,0,1,.376,1.257v1.86Zm6.234-7.541a1.782,1.782,0,1,0,0-3.562,1.782,1.782,0,1,0,0,3.563Zm-5.047,6.353H11.281v-.673a1.177,1.177,0,0,0-.158-.594,1.074,1.074,0,0,0-.495-.435,12.218,12.218,0,0,0-2.316-.851,9.3,9.3,0,0,0-2.078-.218,9.171,9.171,0,0,0-2.068.218,13.258,13.258,0,0,0-2.345.851,1.036,1.036,0,0,0-.465.426,1.176,1.176,0,0,0-.168.6ZM6.234,277.9ZM6.234,286.034Z" transform="translate(0 -274.93)"/>
</svg>
