<svg xmlns="http://www.w3.org/2000/svg" width="18.591" height="23.239" viewBox="0 0 18.591 23.239">
  <path id="location_on_FILL0_wght400_GRAD0_opsz48" d="M17.3,15.329a2.033,2.033,0,0,0,1.438-3.471,2.033,2.033,0,0,0-2.876,2.876A1.959,1.959,0,0,0,17.3,15.329Zm0,9.615A34.022,34.022,0,0,0,23,18.568a9.673,9.673,0,0,0,1.845-5.04,7.562,7.562,0,0,0-2.193-5.606A7.315,7.315,0,0,0,17.3,5.743a7.315,7.315,0,0,0-5.359,2.179,7.562,7.562,0,0,0-2.193,5.606,9.532,9.532,0,0,0,1.888,5.04A36.945,36.945,0,0,0,17.3,24.944Zm0,2.295a38.627,38.627,0,0,1-6.986-7.393A11.5,11.5,0,0,1,8,13.528a8.986,8.986,0,0,1,2.8-6.943,9.445,9.445,0,0,1,12.985,0,8.986,8.986,0,0,1,2.8,6.943,11.5,11.5,0,0,1-2.309,6.318A38.627,38.627,0,0,1,17.3,27.239ZM17.3,13.528Z" transform="translate(-8 -4)"/>
</svg>
