<svg xmlns="http://www.w3.org/2000/svg" width="19" height="19" viewBox="0 0 19 19">
  <path id="schedule_FILL0_wght400_GRAD0_opsz48" d="M92.991,190.084l1.069-1.069-3.776-3.8v-4.774H88.859v5.344ZM89.5,195a9.192,9.192,0,0,1-3.681-.748,9.571,9.571,0,0,1-5.071-5.071,9.431,9.431,0,0,1,0-7.362,9.571,9.571,0,0,1,5.071-5.071,9.431,9.431,0,0,1,7.363,0,9.571,9.571,0,0,1,5.071,5.071,9.431,9.431,0,0,1,0,7.362,9.571,9.571,0,0,1-5.071,5.071A9.192,9.192,0,0,1,89.5,195ZM89.5,185.5Zm0,8.075a8.109,8.109,0,1,0-5.7-2.375A7.774,7.774,0,0,0,89.5,193.575Z" transform="translate(-80 -176)"/>
</svg>
