<svg xmlns="http://www.w3.org/2000/svg" data-name="Group 524" viewBox="0 0 42 42"><defs><clipPath id="a"><path fill="none" d="M0 0h42v42H0z" data-name="Rectangle 821"/></clipPath></defs><g fill="#fff" clip-path="url(#a)" data-name="Group 340"><path d="M21 0a21 21 0 1 0 21 21A21 21 0 0 0 21 0m0 39.1A18.1 18.1 0 1 1 39.1 21 18.1 18.1 0 0 1 21 39.1" data-name="Path 3389"/><path d="M27.122 9.179a6.494 6.494 0 0 0-.486-.019c-2.275 0-4.913 1.227-5.577 3.115-.663-1.886-3.865-3.1-6.215-3.1-.172 0-.34.007-.5.02-6.253.509-8.37 7.482-5.719 12.172a26.929 26.929 0 0 0 5.715 6.712c.644.57 1.637 1.361 2.665 2.152.1.023.205.033.307.052-.1-.019-.206-.029-.307-.052 1.956 1.506 4.035 3.015 4.055 3.015s4.85-3.511 6.72-5.167a26.906 26.906 0 0 0 5.715-6.713 7.681 7.681 0 0 0 .837-2.252 8.21 8.21 0 0 0-7.209-9.94m5.274 11.343a.322.322 0 0 1-.222.089l-5.169.131h-.008a.313.313 0 0 1-.1-.018.331.331 0 0 1-.035-.018.322.322 0 0 1-.176-.2l-.845-3.066-.709-2.571-.074.219-.108.319-3.8 11.225a.319.319 0 0 1-.2.2.36.36 0 0 1-.116.021.337.337 0 0 1-.324-.224l-.226-.645-.189-.541-2.665-7.567-1.611 3.076a.336.336 0 0 1-.289.156h-5.7a.316.316 0 0 1-.141-.6.355.355 0 0 1 .141-.027h5.5l.7-1.333 1.182-2.258a.286.286 0 0 1 .263-.154.4.4 0 0 1 .294.135.3.3 0 0 1 .045.079c0 .005.007.009.009.015l.415 1.185.771 2.2 1.801 5.188.12-.352.1-.3 1.638-4.835 2.165-6.39a.347.347 0 0 1 .335-.224.307.307 0 0 1 .31.224q.888 3.225 1.778 6.449l4.912-.124h.011a.3.3 0 0 1 .236.1.327.327 0 0 1-.025.443" data-name="Path 3390"/></g></svg>