<svg xmlns="http://www.w3.org/2000/svg" data-name="Group 525" viewBox="0 0 42 42"><defs><clipPath id="a"><path fill="none" d="M0 0h42v42H0z" data-name="Rectangle 820"/></clipPath></defs><g fill="#fff" clip-path="url(#a)" data-name="Group 338"><path d="M21 0a21 21 0 1 0 21 21A21 21 0 0 0 21 0m0 39.1A18.1 18.1 0 1 1 39.1 21 18.1 18.1 0 0 1 21 39.1" data-name="Path 3384"/><path d="m32.958 18.085-.364.141a1.054 1.054 0 0 1-.171.045 1.184 1.184 0 0 1-.6-.037 1.238 1.238 0 0 1-.188-.073l-.358-.182-.185-.094-.4.153-.531.205a9.367 9.367 0 1 1-.382-.954l.534-.206.029-.012v.009l.365-.139.07-.184.152-.4a1.242 1.242 0 0 1 .079-.161 1.153 1.153 0 0 1 .415-.444 1.1 1.1 0 0 1 .173-.09l.346-.134a12 12 0 1 0 1.01 2.555" data-name="Path 3385"/><path d="m26.045 18.736.279-.108.275-.107.285-.11.279-.108.275-.106a6.557 6.557 0 1 0 .388.952l-.276.107-.279.108-.286.111-.277.107-.279.108a5.318 5.318 0 1 1-.384-.954" data-name="Path 3386"/><path d="m20.831 20.524.057-.11.4-.514.148.617 1.92-.743a2.465 2.465 0 1 0 .448 1.413 2.5 2.5 0 0 0-.041-.469l-1.941.751.305.5-.447-.006a.891.891 0 0 1-.528-.191 1.027 1.027 0 0 1-.2-.206 1.061 1.061 0 0 1-.132-.244 1.078 1.078 0 0 1-.06-.538 1.03 1.03 0 0 1 .073-.259" data-name="Path 3387"/><path d="m34.444 16.917-.947-.434a.261.261 0 0 0-.053-.136l.409-.957a.191.191 0 0 0-.154-.262.125.125 0 0 0-.047.009l-1.562.6-.028.011-.37.143a.824.824 0 0 0-.151.079.954.954 0 0 0-.375.473l-.011.028-.224.591-.026.069-.48.183a5.975 5.975 0 0 1-.192.071v-.005l-.343.133-.031.012-2.309.893-.275.106-.279.108-.285.111-.275.107-.279.108-.068.026-2.602 1.007-.059.023-2.113.817a.261.261 0 0 0-.047.024c0-.015-.008-.03-.011-.045-.029-.11-.053-.227-.085-.362l-.065.081-.048.091a.8.8 0 0 0-.056.2.839.839 0 0 0 .047.415.818.818 0 0 0 .1.188.77.77 0 0 0 .148.152.656.656 0 0 0 .383.142c-.073-.12-.14-.217-.2-.314l-.032-.059-.035-.068c.011.022.022.045.035.067a.25.25 0 0 0 .052-.014l2.126-.822.061-.024 2.589-1 .069-.027.277-.107.275-.107.284-.11.277-.108.275-.106h.005l2.308-.893.024-.009.531-.205.494-.191.046.024.584.3.011.005a.99.99 0 0 0 .448.111.9.9 0 0 0 .163-.015.877.877 0 0 0 .149-.042l.386-.149.024-.009 1.551-.6c.126-.049.112-.26-.022-.322" data-name="Path 3388"/></g></svg>