<svg xmlns="http://www.w3.org/2000/svg" width="260" height="58.782" viewBox="0 0 260 58.782">
  <defs>
    <clipPath id="a">
      <path data-name="Rectangle 454" fill="none" d="M0 0h260v58.782H0z"/>
    </clipPath>
  </defs>
  <g data-name="Group 277" clip-path="url(#a)">
    <path data-name="Path 2024" d="M36.589 22.194a10.34 10.34 0 0 0-8.819-2.833 10.134 10.134 0 0 0-7.858 13.7 10.162 10.162 0 0 0 16.677 3.527 2.419 2.419 0 0 0-3.421-3.421c-.116.113-.232.225-.353.332-.048.043-.384.407-.124.116.245-.276-.064.042-.136.092q-.193.133-.395.253c-.222.133-.453.245-.682.364-.3.156.029-.117.156-.06-.071-.032-.487.176-.575.2a7.473 7.473 0 0 1-.735.189c-.1.02-.2.036-.3.055-.531.106.584-.035.044-.011-.252.011-.5.032-.753.029-.126 0-.251-.006-.377-.013-.075 0-.151-.009-.226-.016q-.4-.042.193.034c-.454-.179-1-.2-1.47-.364-.194-.069-.515-.308.009.016-.083-.051-.19-.087-.278-.131a7.713 7.713 0 0 1-.808-.463c-.057-.037-.374-.206-.386-.271.01.056.376.322.117.081-.218-.2-.439-.4-.643-.612-.092-.1-.177-.2-.268-.3-.375-.4.29.446-.012-.011-.158-.239-.32-.474-.46-.725a6.943 6.943 0 0 1-.18-.342l-.067-.139q-.161-.356.06.156c.045-.089-.215-.609-.248-.721q-.105-.364-.175-.737c-.013-.069-.129-.552-.025-.127s-.006-.18-.011-.28q-.018-.377 0-.754c.006-.126.021-.251.028-.376.018-.346-.119.632-.018.119.109-.554.306-1.066.449-1.607-.161.607-.082.195.007.017q.069-.138.143-.274a7.713 7.713 0 0 1 .408-.664l.09-.129q.23-.312-.09.112c-.009-.051.219-.257.261-.3a7.939 7.939 0 0 1 .692-.678c.318-.275-.023-.143-.056.028.013-.066.328-.233.386-.271q.325-.214.67-.393c.091-.047.184-.091.277-.137.487-.243-.525.186-.013 0 .288-.1.575-.2.871-.271.1-.024.2-.047.3-.067.225-.047.811-.015.1-.03.3.006.6-.047.9-.044.1 0 .2 0 .3.009s.2.012.3.02q.4.042-.193-.034a7.643 7.643 0 0 0 .89.184c.14.037.776.34.867.288-.033.018-.544-.261-.156-.06.16.083.323.159.481.248.274.153.529.33.789.507.283.192-.444-.4-.053-.035.158.146.32.286.474.437a2.419 2.419 0 1 0 3.421-3.421" fill="#63aab0"/>
    <path data-name="Path 2025" d="M16.648 42.134a18.023 18.023 0 1 0 0-25.486c-1.671 1.637.9 4.2 2.566 2.566a14.4 14.4 0 1 1 0 20.355c-1.669-1.635-4.237.928-2.566 2.566" fill="#10273a"/>
    <path data-name="Path 2026" d="M12.713 46.069a23.587 23.587 0 0 0 33.356 0c1.667-1.641-.9-4.206-2.566-2.566a20.166 20.166 0 0 1-28.224 0c-1.666-1.64-4.233.925-2.566 2.566" fill="#65c7b4"/>
    <path data-name="Path 2027" d="M0 29.391a29.737 29.737 0 0 0 19.219 27.576 29.508 29.508 0 0 0 10.172 1.815c2.335.014 2.338-3.614 0-3.628A25.763 25.763 0 0 1 3.628 29.391c-.014-2.334-3.643-2.339-3.629 0" fill="#10273a"/>
    <path data-name="Path 2028" d="M58.783 29.391A29.387 29.387 0 0 0 29.397 0c-2.335-.014-2.338 3.614 0 3.629A25.763 25.763 0 0 1 55.16 29.392c.014 2.334 3.643 2.339 3.629 0" fill="#10273a"/>
    <path data-name="Path 2029" d="M46.069 12.714a23.587 23.587 0 0 0-33.355 0c-1.667 1.641.9 4.206 2.566 2.566a20.166 20.166 0 0 1 28.224 0c1.666 1.64 4.233-.925 2.566-2.566" fill="#65c7b4"/>
    <path data-name="Path 2030" d="M89.17 33.245a2.7 2.7 0 0 1-.908.283 6.672 6.672 0 0 1-1.117.1 2.523 2.523 0 0 1-1.564-.373 1.183 1.183 0 0 1-.461-.967.963.963 0 0 1 .536-.893 3.31 3.31 0 0 1 1.37-.358l2.144-.178Zm2.934-9.992a9.112 9.112 0 0 0-5.2-1.325 17.584 17.584 0 0 0-2.219.149 9 9 0 0 0-2.041.476 2.079 2.079 0 0 0-1.518 2.025 2.585 2.585 0 0 0 .268 1.147 2.059 2.059 0 0 0 .655.819 11.551 11.551 0 0 1 1.951-.6 10.2 10.2 0 0 1 2.189-.238 5.118 5.118 0 0 1 2.189.372 1.277 1.277 0 0 1 .76 1.237v.208l-3.9.417a6.622 6.622 0 0 0-3.767 1.377 4.544 4.544 0 0 0 .651 6.8 9.225 9.225 0 0 0 5.018 1.207 14.829 14.829 0 0 0 3.127-.3 7.776 7.776 0 0 0 2.323-.864 4.31 4.31 0 0 0 1.032-.843 1.849 1.849 0 0 0 .431-1.266v-6.673a4.639 4.639 0 0 0-1.951-4.125" fill="#65c7b4"/>
    <path data-name="Path 2031" d="M77.286 32.617a8.237 8.237 0 0 1-1.177.462 5.261 5.261 0 0 1-1.593.223 3.84 3.84 0 0 1-2.592-.893 3.41 3.41 0 0 1-1.042-2.74 3.524 3.524 0 0 1 1.086-2.8 3.781 3.781 0 0 1 2.576-.953 5.152 5.152 0 0 1 1.549.224 9.685 9.685 0 0 1 1.221.461 3.683 3.683 0 0 0 .625-.849 2.172 2.172 0 0 0 .268-1.057 2.315 2.315 0 0 0-1.176-2 5.963 5.963 0 0 0-3.292-.774 9.23 9.23 0 0 0-3.961.849 6.864 6.864 0 0 0-2.919 2.561 7.865 7.865 0 0 0-1.1 4.333 8.179 8.179 0 0 0 1 4.185 6.3 6.3 0 0 0 2.829 2.576 10 10 0 0 0 4.3.864 6.485 6.485 0 0 0 3.351-.715 2.157 2.157 0 0 0 1.177-1.906 2.235 2.235 0 0 0-.284-1.161 3.12 3.12 0 0 0-.849-.894" fill="#65c7b4"/>
    <path data-name="Path 2032" d="M104.151 21.957a12.674 12.674 0 0 0-2.89.327 8.477 8.477 0 0 0-2.442.953 4.359 4.359 0 0 0-1.206 1.117 2.5 2.5 0 0 0-.462 1.5v8.845a2.226 2.226 0 0 0 .67 1.876 3.558 3.558 0 0 0 2.13.506 9.148 9.148 0 0 0 1.326-.089 8.516 8.516 0 0 0 .938-.179v-10.18a5.072 5.072 0 0 1 1.459-.536 7.553 7.553 0 0 1 1.579-.179c.337 0 .645.011.923.03a5.879 5.879 0 0 1 .714.089 3.425 3.425 0 0 0 .358-.789 3.252 3.252 0 0 0 .149-1q0-2.293-3.246-2.293" fill="#65c7b4"/>
    <path data-name="Path 2033" d="M112.917 28.239a2.974 2.974 0 0 1 .809-1.844 2.713 2.713 0 0 1 1.982-.778 2.084 2.084 0 0 1 2.263 1.787Zm9.252 1.551a2.029 2.029 0 0 0 .566-1.548 5.979 5.979 0 0 0-.893-3.261 6.278 6.278 0 0 0-2.472-2.234 7.915 7.915 0 0 0-3.693-.819 8.759 8.759 0 0 0-2.725.432 7.2 7.2 0 0 0-2.4 1.326 6.338 6.338 0 0 0-1.713 2.322 9.42 9.42 0 0 0 .447 7.8 6.82 6.82 0 0 0 2.948 2.636 9.688 9.688 0 0 0 4.185.879 13.1 13.1 0 0 0 2.948-.3 4.567 4.567 0 0 0 2.011-.938 2.067 2.067 0 0 0 .73-1.623 2.137 2.137 0 0 0-.328-1.132 2.513 2.513 0 0 0-.8-.834 8.609 8.609 0 0 1-1.817.715 8.518 8.518 0 0 1-2.382.328 5.16 5.16 0 0 1-2.368-.536 2.466 2.466 0 0 1-1.2-1.423l7.385-1.109a2.821 2.821 0 0 0 1.578-.685" fill="#65c7b4"/>
    <path data-name="Path 2034" d="M127.827 15.673a2.7 2.7 0 0 0-2 .774 2.715 2.715 0 0 0 0 3.8 2.917 2.917 0 0 0 3.991 0 2.715 2.715 0 0 0 0-3.8 2.7 2.7 0 0 0-2-.774" fill="#10273a"/>
    <path data-name="Path 2035" d="M127.708 22.314a9.124 9.124 0 0 0-1.326.09 8.546 8.546 0 0 0-.938.178v14.057a4.224 4.224 0 0 1-.208 1.415 2.755 2.755 0 0 1-.655 1.027 4.405 4.405 0 0 1-1.162.8 2.855 2.855 0 0 0 .789 1.981 2.7 2.7 0 0 0 2.04.79 3.915 3.915 0 0 0 3.679-2.383 7.381 7.381 0 0 0 .581-3.156V24.697a2.252 2.252 0 0 0-.655-1.892 3.64 3.64 0 0 0-2.144-.491" fill="#10273a"/>
    <path data-name="Path 2036" d="M142.837 32.396a2.431 2.431 0 0 1-3.871.015 4.768 4.768 0 0 1-.685-2.8 4.649 4.649 0 0 1 .7-2.755 2.38 2.38 0 0 1 3.842.015 4.662 4.662 0 0 1 .7 2.739 4.784 4.784 0 0 1-.685 2.785m2.16-9.516a8.416 8.416 0 0 0-4.1-.953 8.522 8.522 0 0 0-4.079.939 6.74 6.74 0 0 0-2.74 2.666 8.113 8.113 0 0 0-.983 4.079 8.346 8.346 0 0 0 .969 4.14 6.546 6.546 0 0 0 2.725 2.65 8.711 8.711 0 0 0 4.11.923 8.582 8.582 0 0 0 4.125-.937 6.679 6.679 0 0 0 2.711-2.666 8.28 8.28 0 0 0 .968-4.11 8.057 8.057 0 0 0-.983-4.051 6.88 6.88 0 0 0-2.725-2.68" fill="#10273a"/>
    <path data-name="Path 2037" d="M160.29 32.366a2.648 2.648 0 0 1-2.144.968 3.894 3.894 0 0 1-1.088-.135 3.949 3.949 0 0 1-.79-.312v-6.448c.136-.075.268-.152.417-.224a3.63 3.63 0 0 1 1.579-.327 2.6 2.6 0 0 1 2.07.879 4.207 4.207 0 0 1 .759 2.785 4.3 4.3 0 0 1-.8 2.814m2.5-9.575a7.435 7.435 0 0 0-3.573-.864 7.3 7.3 0 0 0-2.085.284c-.3.089-.575.184-.834.284v-2.95a2.253 2.253 0 0 0-.655-1.892 3.636 3.636 0 0 0-2.144-.49 9.146 9.146 0 0 0-1.326.089 8.066 8.066 0 0 0-.938.179v15.9a2.639 2.639 0 0 0 .342 1.34 3.3 3.3 0 0 0 .968 1.042 9.726 9.726 0 0 0 2.323 1.132 10.223 10.223 0 0 0 3.336.476 9.416 9.416 0 0 0 4.259-.908 6.543 6.543 0 0 0 2.814-2.65 8.354 8.354 0 0 0 1-4.214 8.588 8.588 0 0 0-.937-4.2 6.267 6.267 0 0 0-2.547-2.561" fill="#10273a"/>
    <path data-name="Path 2038" d="M179.753 29.566a8.8 8.8 0 0 0-4.066-1.8l-.923-.208a3.431 3.431 0 0 1-1.131-.388.628.628 0 0 1-.3-.536.741.741 0 0 1 .536-.7 4.082 4.082 0 0 1 1.519-.223 8.006 8.006 0 0 1 1.429.149 14.8 14.8 0 0 1 1.5.357 4.372 4.372 0 0 1 1.028.417 2.594 2.594 0 0 0 .64-.833 2.567 2.567 0 0 0 .253-1.162 1.967 1.967 0 0 0-.715-1.564 4.5 4.5 0 0 0-1.921-.893 11.681 11.681 0 0 0-2.666-.284 8.185 8.185 0 0 0-4.736 1.251 4 4 0 0 0-1.816 3.484 3.865 3.865 0 0 0 1.28 3.1 8.325 8.325 0 0 0 3.842 1.609l.893.178a3.326 3.326 0 0 1 1.191.387.749.749 0 0 1 .357.655q0 .984-1.905.983a8.127 8.127 0 0 1-2.577-.373 11.782 11.782 0 0 1-1.981-.849 2.585 2.585 0 0 0-.714.8 2.361 2.361 0 0 0-.3 1.221 2.4 2.4 0 0 0 1.622 2.278 10.2 10.2 0 0 0 4.155.73 8.247 8.247 0 0 0 4.989-1.281 4.179 4.179 0 0 0 1.712-3.543 3.905 3.905 0 0 0-1.206-2.964" fill="#10273a"/>
    <path data-name="Path 2039" d="M188.463 28.985v-2.412h2.71a1.67 1.67 0 0 0 1.236-.461 2.067 2.067 0 0 0 .461-1.5 3.586 3.586 0 0 0-.164-1.1 3.989 3.989 0 0 0-.342-.8h-3.9v-1.619a2.259 2.259 0 0 0-.655-1.877 3.493 3.493 0 0 0-2.115-.506 7.63 7.63 0 0 0-1.295.1q-.611.1-.939.193v13.228a4.794 4.794 0 0 0 1.415 3.872 6.1 6.1 0 0 0 4.036 1.191 4.662 4.662 0 0 0 2.993-.73 2.458 2.458 0 0 0 .655-2.814 2.88 2.88 0 0 0-.461-.715 5.152 5.152 0 0 1-.834.193 5.885 5.885 0 0 1-.923.075 2.4 2.4 0 0 1-1.384-.342 1.23 1.23 0 0 1-.492-1.087v-2.889Z" fill="#63aab0"/>
    <path data-name="Path 2040" d="M221.135 33.2a3.379 3.379 0 0 1-.982.135 2.934 2.934 0 0 1-2.279-.894 4 4 0 0 1-.819-2.769 5.025 5.025 0 0 1 .387-2.114 2.7 2.7 0 0 1 1.117-1.251 3.457 3.457 0 0 1 1.743-.417 3.407 3.407 0 0 1 1.385.268c.049.021.087.044.133.066v6.724a4.4 4.4 0 0 1-.685.253m2.919-16.037a9.126 9.126 0 0 0-1.326.089 8.468 8.468 0 0 0-.938.179v4.827c-.128-.041-.246-.084-.388-.122a7.041 7.041 0 0 0-1.816-.209 8.759 8.759 0 0 0-3.887.85 6.4 6.4 0 0 0-2.755 2.561 9.657 9.657 0 0 0-.03 8.547 6.209 6.209 0 0 0 2.829 2.577 11.717 11.717 0 0 0 7.565.432 9.068 9.068 0 0 0 2.234-1 2.8 2.8 0 0 0 1-.953 2.5 2.5 0 0 0 .313-1.281V19.545a2.249 2.249 0 0 0-.655-1.891 3.63 3.63 0 0 0-2.144-.491" fill="#63aab0"/>
    <path data-name="Path 2041" d="M259.226 22.523a3.574 3.574 0 0 0-1.818-.447 4.239 4.239 0 0 0-1.131.149 5.207 5.207 0 0 0-1.042.417q-.269 1.608-.671 3.321t-.864 3.351q-.462 1.637-.938 3.007h-.12q-.566-2.025-1.162-4.065t-1.191-4.125a2.649 2.649 0 0 0-1.012-1.623 3.184 3.184 0 0 0-1.727-.432 3.854 3.854 0 0 0-2.651 1.043q.655 2.65 1.207 4.512t1.057 3.187q.507 1.325.953 2.338a6.862 6.862 0 0 0 1.267 2.07 2.817 2.817 0 0 0 1.086.7q-.477.685-1.072 1.384t-1.236 1.326q-.641.624-1.267 1.161a3.07 3.07 0 0 0 .953 1.936 2.83 2.83 0 0 0 2 .744 4.175 4.175 0 0 0 2.888-1.4 20.376 20.376 0 0 0 3.1-4.288q.6-1.042 1.191-2.338t1.132-2.71q.536-1.414.953-2.815a26.9 26.9 0 0 0 .655-2.65 11.987 11.987 0 0 0 .238-2.2 1.64 1.64 0 0 0-.774-1.548" fill="#63aab0"/>
    <path data-name="Path 2042" d="M238.23 33.244a2.712 2.712 0 0 1-.909.284 6.678 6.678 0 0 1-1.117.1 2.522 2.522 0 0 1-1.564-.373 1.183 1.183 0 0 1-.461-.968.962.962 0 0 1 .536-.894 3.3 3.3 0 0 1 1.37-.357l2.144-.179Zm2.933-9.992a9.1 9.1 0 0 0-5.2-1.326 17.789 17.789 0 0 0-2.219.149 8.948 8.948 0 0 0-2.04.477 2.079 2.079 0 0 0-1.519 2.025 2.6 2.6 0 0 0 .268 1.147 2.067 2.067 0 0 0 .655.819 11.623 11.623 0 0 1 1.951-.6 10.2 10.2 0 0 1 2.19-.239 5.114 5.114 0 0 1 2.189.373 1.277 1.277 0 0 1 .762 1.241v.209l-3.9.417a6.622 6.622 0 0 0-3.77 1.374 4.546 4.546 0 0 0 .655 6.805 9.227 9.227 0 0 0 5.019 1.206 14.814 14.814 0 0 0 3.127-.3 7.741 7.741 0 0 0 2.322-.863 4.3 4.3 0 0 0 1.025-.848 1.852 1.852 0 0 0 .432-1.266v-6.675a4.638 4.638 0 0 0-1.952-4.125" fill="#63aab0"/>
    <path data-name="Path 2043" d="M204.218 32.396a2.431 2.431 0 0 1-3.871.015 4.768 4.768 0 0 1-.685-2.8 4.649 4.649 0 0 1 .7-2.755 2.379 2.379 0 0 1 3.841.015 4.659 4.659 0 0 1 .7 2.739 4.784 4.784 0 0 1-.685 2.785m2.159-9.516a8.406 8.406 0 0 0-4.1-.953 8.542 8.542 0 0 0-4.08.938 6.744 6.744 0 0 0-2.74 2.666 8.118 8.118 0 0 0-.983 4.08 8.34 8.34 0 0 0 .968 4.14 6.551 6.551 0 0 0 2.725 2.65 8.715 8.715 0 0 0 4.109.923 8.578 8.578 0 0 0 4.125-.938 6.672 6.672 0 0 0 2.71-2.666 8.278 8.278 0 0 0 .968-4.11 8.054 8.054 0 0 0-.982-4.05 6.873 6.873 0 0 0-2.726-2.68" fill="#63aab0"/>
  </g>
</svg>