<svg data-name="Group 601" xmlns="http://www.w3.org/2000/svg" width="321.5" height="36.997" viewBox="0 0 321.5 36.997">
  <defs>
    <clipPath id="a">
      <path data-name="Rectangle 4" fill="#fff" d="M0 0h321.5v36.997H0z"/>
    </clipPath>
  </defs>
  <g data-name="Group 1" clip-path="url(#a)" fill="#fff">
    <path data-name="Path 1" d="M262.951.65v8.725h-15.968V.65a.45.45 0 0 0-.457-.448h-3.827a.45.45 0 0 0-.452.448v22.294a.451.451 0 0 0 .452.448h3.827a.451.451 0 0 0 .452-.448v-8.876h15.968v8.876a.451.451 0 0 0 .452.448h3.828a.451.451 0 0 0 .452-.448V.65a.45.45 0 0 0-.452-.448h-3.827a.45.45 0 0 0-.452.448"/>
    <path data-name="Path 2" d="m293.24 6.294-1.809-3.324a.449.449 0 0 1 .1-.546 9.124 9.124 0 0 1 1.4-1.052A9.437 9.437 0 0 1 298.006 0a9.226 9.226 0 0 1 3.262.548 7.133 7.133 0 0 1 2.485 1.543 6.755 6.755 0 0 1 1.576 2.391 8.262 8.262 0 0 1 .547 3.045 7.377 7.377 0 0 1-.258 2 8.149 8.149 0 0 1-.7 1.726 10.567 10.567 0 0 1-1.05 1.556c-.4.488-.832.982-1.293 1.466l-4.312 4.5h7.708a.45.45 0 0 1 .452.448v3.727a.45.45 0 0 1-.452.448h-14.442a.45.45 0 0 1-.451-.448v-3a.82.82 0 0 1 .232-.572l7.754-7.966a6.873 6.873 0 0 0 1.322-1.778 4.183 4.183 0 0 0 .433-1.867 3.271 3.271 0 0 0-.226-1.237 2.876 2.876 0 0 0-.632-.963 2.839 2.839 0 0 0-.981-.633 3.531 3.531 0 0 0-1.293-.229 4.6 4.6 0 0 0-1.362.189 4.833 4.833 0 0 0-1.123.506 6.577 6.577 0 0 0-.959.747c-.109.1-.211.189-.307.272a.454.454 0 0 1-.7-.124"/>
    <path data-name="Path 3" d="M288.283 13.483a5.71 5.71 0 0 0-1.494-1.911 7.668 7.668 0 0 0-2.2-1.256 14.509 14.509 0 0 0-2.685-.713l-1.19-.208c-.622-.1-1.2-.224-1.724-.354a6.6 6.6 0 0 1-1.324-.468 2.255 2.255 0 0 1-.807-.631 1.339 1.339 0 0 1-.264-.849 1.827 1.827 0 0 1 .258-.978 2.332 2.332 0 0 1 .748-.749 4 4 0 0 1 1.193-.492 6.492 6.492 0 0 1 1.563-.176 9.129 9.129 0 0 1 3.131.527 13.711 13.711 0 0 1 2.5 1.211.482.482 0 0 0 .252.072.476.476 0 0 0 .425-.261l1.782-3.262a.464.464 0 0 0 .067-.24.469.469 0 0 0-.234-.405 18.208 18.208 0 0 0-1.829-.994 13.821 13.821 0 0 0-1.984-.756 13.511 13.511 0 0 0-2.033-.436 16.509 16.509 0 0 0-2.17-.138 11.447 11.447 0 0 0-3.276.465 8.485 8.485 0 0 0-2.754 1.383 6.822 6.822 0 0 0-1.912 2.31 6.937 6.937 0 0 0-.717 3.2 6.44 6.44 0 0 0 .506 2.659 5.556 5.556 0 0 0 1.409 1.956 7.068 7.068 0 0 0 2.114 1.273 13.306 13.306 0 0 0 2.623.716l1.337.224c.722.126 1.365.261 1.912.4a6.333 6.333 0 0 1 1.343.489 2.036 2.036 0 0 1 .751.622 1.646 1.646 0 0 1 .235.9 1.774 1.774 0 0 1-.271.989 2.491 2.491 0 0 1-.786.761 4.005 4.005 0 0 1-1.236.492 7.029 7.029 0 0 1-1.575.169 9.5 9.5 0 0 1-1.933-.194 11.628 11.628 0 0 1-1.781-.514 10.03 10.03 0 0 1-2.64-1.489.481.481 0 0 0-.634.035.5.5 0 0 0-.062.075l-1.983 3.264a.472.472 0 0 0 .071.581.519.519 0 0 0 .083.066 10.677 10.677 0 0 0 1.76 1.158 13.765 13.765 0 0 0 2.237.935 15.556 15.556 0 0 0 2.408.559 16.534 16.534 0 0 0 2.459.186 12.072 12.072 0 0 0 3.325-.456 8.649 8.649 0 0 0 2.838-1.39 6.918 6.918 0 0 0 1.982-2.358 7.228 7.228 0 0 0 .74-3.35 6.036 6.036 0 0 0-.549-2.649"/>
    <path data-name="Path 4" d="M190.257 9.18h-1.318l-.738-2.837c-.028-.1-.073-.31-.139-.627s-.1-.528-.114-.637q-.022.2-.112.641c-.06.294-.106.5-.138.629l-.733 2.831h-1.311l-1.388-5.4h1.135l.7 2.948q.182.817.265 1.416c.014-.141.049-.358.1-.653s.1-.523.151-.685l.793-3.026h1.091l.793 3.026q.053.2.13.621t.119.717c.024-.193.065-.432.119-.72s.1-.518.149-.7l.693-2.948h1.135Z"/>
    <path data-name="Path 5" d="M195.716 7.107a2.212 2.212 0 0 1-.536 1.578 1.953 1.953 0 0 1-1.493.569 2.121 2.121 0 0 1-1.058-.26 1.75 1.75 0 0 1-.7-.75 2.5 2.5 0 0 1-.246-1.138 2.194 2.194 0 0 1 .534-1.574 1.961 1.961 0 0 1 1.5-.562 2.114 2.114 0 0 1 1.057.259 1.73 1.73 0 0 1 .7.743 2.479 2.479 0 0 1 .245 1.134m-2.878 0a1.717 1.717 0 0 0 .2.927.727.727 0 0 0 .661.315.715.715 0 0 0 .654-.312 1.75 1.75 0 0 0 .2-.929 1.693 1.693 0 0 0-.2-.921.86.86 0 0 0-1.314 0 1.694 1.694 0 0 0-.2.922"/>
    <path data-name="Path 6" d="M198.674 4.971a1.857 1.857 0 0 1 .383.033l-.085 1.058a1.284 1.284 0 0 0-.336-.037 1.208 1.208 0 0 0-.847.277 1 1 0 0 0-.3.776v2.1h-1.135V5.049h.86l.168.695h.055a1.56 1.56 0 0 1 .524-.56 1.3 1.3 0 0 1 .717-.213"/>
    <path data-name="Path 7" d="m200.599 6.933.495-.633 1.166-1.256h1.281l-1.653 1.792 1.754 2.339h-1.311l-1.2-1.674-.488.388V9.18h-1.135V3.43h1.135v2.565l-.059.938Z"/>
    <path data-name="Path 8" d="M203.884 3.98q0-.551.619-.55t.619.55a.536.536 0 0 1-.155.409.653.653 0 0 1-.464.146c-.412 0-.619-.184-.619-.555m1.184 5.2h-1.135V5.049h1.135Z"/>
    <path data-name="Path 9" d="M209.798 9.179h-1.135V6.766a1.154 1.154 0 0 0-.16-.67.586.586 0 0 0-.51-.225.772.772 0 0 0-.689.316 1.956 1.956 0 0 0-.213 1.048v1.944h-1.135v-4.13h.867l.152.528h.064a1.2 1.2 0 0 1 .524-.454 1.793 1.793 0 0 1 .757-.152 1.462 1.462 0 0 1 1.1.389 1.555 1.555 0 0 1 .377 1.126Z"/>
    <path data-name="Path 10" d="M214.282 5.049v.573l-.652.165a1.123 1.123 0 0 1 .179.621 1.247 1.247 0 0 1-.467 1.036 2.029 2.029 0 0 1-1.3.372l-.2-.011-.168-.019a.374.374 0 0 0-.176.3c0 .162.209.244.626.244h.708a1.631 1.631 0 0 1 1.05.288 1.041 1.041 0 0 1 .359.857 1.42 1.42 0 0 1-.61 1.212 3.187 3.187 0 0 1-1.748.4 2.437 2.437 0 0 1-1.331-.3 1.107 1.107 0 0 1-.459-.933.879.879 0 0 1 .234-.625 1.34 1.34 0 0 1 .689-.358.754.754 0 0 1-.306-.242.568.568 0 0 1-.13-.356.574.574 0 0 1 .138-.393 1.633 1.633 0 0 1 .4-.309 1.1 1.1 0 0 1-.519-.45 1.36 1.36 0 0 1-.192-.731 1.285 1.285 0 0 1 .443-1.047 1.931 1.931 0 0 1 1.266-.369 3.276 3.276 0 0 1 .415.032c.161.021.263.036.308.046Zm-3.21 4.715a.409.409 0 0 0 .224.366 1.225 1.225 0 0 0 .632.221 2.153 2.153 0 0 0 .954-.254.508.508 0 0 0 .346-.455.32.32 0 0 0-.2-.321 1.69 1.69 0 0 0-.633-.089h-.589a.9.9 0 0 0-.524.146.447.447 0 0 0-.21.386m.413-3.362a.843.843 0 0 0 .155.533.563.563 0 0 0 .471.2.55.55 0 0 0 .469-.2.863.863 0 0 0 .149-.533q0-.746-.619-.746t-.625.746"/>
    <path data-name="Path 11" d="M216.294 3.98q0-.551.619-.55t.617.55a.536.536 0 0 1-.154.409.655.655 0 0 1-.464.146c-.412 0-.619-.184-.619-.555m1.184 5.2h-1.135V5.049h1.135Z"/>
    <path data-name="Path 12" d="M222.209 9.179h-1.135V6.766a1.153 1.153 0 0 0-.16-.67.586.586 0 0 0-.51-.225.772.772 0 0 0-.689.316 1.956 1.956 0 0 0-.212 1.049v1.943h-1.137v-4.13h.867l.152.528h.064a1.2 1.2 0 0 1 .524-.454 1.793 1.793 0 0 1 .757-.152 1.462 1.462 0 0 1 1.1.389 1.555 1.555 0 0 1 .377 1.126Z"/>
    <path data-name="Path 13" d="M176.617 18.424a1.383 1.383 0 0 1-1.15-.528h-.06c.039.345.06.545.06.6v1.672h-1.137v-5.949h.923l.16.536h.053a1.315 1.315 0 0 1 1.18-.614 1.357 1.357 0 0 1 1.155.566 2.6 2.6 0 0 1 .416 1.57 3.1 3.1 0 0 1-.194 1.15 1.624 1.624 0 0 1-.558.742 1.435 1.435 0 0 1-.849.255m-.335-3.381a.718.718 0 0 0-.614.256 1.462 1.462 0 0 0-.2.848v.122a1.731 1.731 0 0 0 .2.953.711.711 0 0 0 .631.288q.764 0 .764-1.248a1.766 1.766 0 0 0-.189-.915.64.64 0 0 0-.59-.3"/>
    <path data-name="Path 14" d="m181.5 18.349-.219-.561h-.03a1.67 1.67 0 0 1-.591.5 1.906 1.906 0 0 1-.791.139 1.285 1.285 0 0 1-.944-.34 1.3 1.3 0 0 1-.345-.969 1.085 1.085 0 0 1 .464-.969 2.7 2.7 0 0 1 1.4-.346l.722-.022v-.184a.565.565 0 0 0-.648-.629 2.978 2.978 0 0 0-1.173.3l-.376-.762a3.4 3.4 0 0 1 1.594-.373 1.991 1.991 0 0 1 1.285.362 1.332 1.332 0 0 1 .447 1.1v2.752Zm-.335-1.914-.44.014a1.412 1.412 0 0 0-.737.178.555.555 0 0 0-.243.5c0 .318.184.477.551.477a.88.88 0 0 0 .632-.226.787.787 0 0 0 .236-.6Z"/>
    <path data-name="Path 15" d="M185.478 14.138a1.856 1.856 0 0 1 .383.033l-.085 1.058a1.283 1.283 0 0 0-.336-.037 1.208 1.208 0 0 0-.847.277 1 1 0 0 0-.3.776v2.1h-1.135v-4.126h.86l.168.695h.055a1.56 1.56 0 0 1 .524-.56 1.3 1.3 0 0 1 .717-.213"/>
    <path data-name="Path 16" d="M188.066 17.525a2.459 2.459 0 0 0 .715-.129v.838a2.559 2.559 0 0 1-1.043.189 1.289 1.289 0 0 1-.993-.341 1.486 1.486 0 0 1-.31-1.026v-1.988h-.543v-.48l.625-.377.328-.872h.727v.879h1.165v.85h-1.165v1.991a.439.439 0 0 0 .135.354.541.541 0 0 0 .36.115"/>
    <path data-name="Path 17" d="M193.162 18.349h-1.135v-2.411a1.154 1.154 0 0 0-.16-.67.586.586 0 0 0-.51-.225.772.772 0 0 0-.689.316 1.955 1.955 0 0 0-.212 1.049v1.943h-1.139v-4.132h.867l.152.528h.064a1.2 1.2 0 0 1 .524-.454 1.793 1.793 0 0 1 .757-.152 1.462 1.462 0 0 1 1.1.389 1.555 1.555 0 0 1 .377 1.126Z"/>
    <path data-name="Path 18" d="M195.909 18.424a2.159 2.159 0 0 1-1.572-.55 2.075 2.075 0 0 1-.566-1.56 2.28 2.28 0 0 1 .522-1.606 1.873 1.873 0 0 1 1.445-.57 1.838 1.838 0 0 1 1.374.5 1.875 1.875 0 0 1 .492 1.378v.547h-2.684a1.08 1.08 0 0 0 .286.751 1.019 1.019 0 0 0 .752.27 3.157 3.157 0 0 0 .711-.078 3.619 3.619 0 0 0 .7-.248v.872a2.683 2.683 0 0 1-.637.219 4.017 4.017 0 0 1-.826.072m-.16-3.481a.719.719 0 0 0-.566.228 1.038 1.038 0 0 0-.235.644h1.593a.933.933 0 0 0-.22-.644.744.744 0 0 0-.573-.228"/>
    <path data-name="Path 19" d="M200.55 14.138a1.857 1.857 0 0 1 .383.033l-.085 1.058a1.284 1.284 0 0 0-.336-.037 1.208 1.208 0 0 0-.847.277 1 1 0 0 0-.3.776v2.1h-1.135v-4.126h.86l.168.695h.055a1.559 1.559 0 0 1 .524-.56 1.3 1.3 0 0 1 .717-.213"/>
    <path data-name="Path 20" d="M204.29 17.123a1.132 1.132 0 0 1-.445.968 2.208 2.208 0 0 1-1.331.333 4.336 4.336 0 0 1-.775-.06 2.992 2.992 0 0 1-.6-.18v-.932a3.982 3.982 0 0 0 .714.248 2.873 2.873 0 0 0 .7.1q.618 0 .619-.355a.3.3 0 0 0-.082-.216 1.2 1.2 0 0 0-.283-.189 7.587 7.587 0 0 0-.537-.245 3.389 3.389 0 0 1-.7-.369 1.021 1.021 0 0 1-.328-.39 1.275 1.275 0 0 1-.1-.541.975.975 0 0 1 .431-.852 2.106 2.106 0 0 1 1.219-.3 3.488 3.488 0 0 1 1.463.325l-.343.813a5.995 5.995 0 0 0-.584-.218 1.841 1.841 0 0 0-.554-.085c-.336 0-.5.09-.5.27a.318.318 0 0 0 .161.263 4.528 4.528 0 0 0 .709.329 3.313 3.313 0 0 1 .716.365 1.087 1.087 0 0 1 .335.392 1.181 1.181 0 0 1 .108.528"/>
    <path data-name="Path 21" d="M208.713 18.349h-1.135v-2.413q0-.894-.67-.894a.764.764 0 0 0-.689.322 1.95 1.95 0 0 0-.212 1.042v1.943h-1.135v-5.746h1.135v1.172q0 .136-.027.642l-.025.333h.06a1.317 1.317 0 0 1 1.206-.606 1.482 1.482 0 0 1 1.113.391 1.55 1.55 0 0 1 .38 1.123Z"/>
    <path data-name="Path 22" d="M209.529 13.15q0-.551.619-.55t.619.55a.537.537 0 0 1-.155.409.656.656 0 0 1-.464.146q-.618 0-.619-.555m1.185 5.2h-1.135v-4.131h1.135Z"/>
    <path data-name="Path 23" d="M213.886 18.424a1.383 1.383 0 0 1-1.15-.528h-.06c.039.345.06.545.06.6v1.672h-1.137v-5.949h.923l.16.536h.053a1.315 1.315 0 0 1 1.18-.614 1.356 1.356 0 0 1 1.155.566 2.6 2.6 0 0 1 .416 1.57 3.1 3.1 0 0 1-.194 1.15 1.624 1.624 0 0 1-.558.742 1.435 1.435 0 0 1-.849.255m-.335-3.381a.718.718 0 0 0-.614.256 1.463 1.463 0 0 0-.2.848v.122a1.731 1.731 0 0 0 .2.953.711.711 0 0 0 .631.288q.764 0 .764-1.248a1.767 1.767 0 0 0-.189-.915.64.64 0 0 0-.59-.3"/>
    <path data-name="Path 24" d="m221.983 18.345-.32-1.444-.432-1.826h-.027l-.759 3.27h-1.222l-1.188-4.126h1.131l.48 1.829q.116.49.235 1.356h.022a7.711 7.711 0 0 1 .13-.891l.06-.313.514-1.98h1.251l.488 1.98.046.24c.021.105.041.219.062.338s.038.237.054.352.025.206.028.275h.022q.033-.266.119-.73t.123-.626l.5-1.829h1.113l-1.2 4.131Z"/>
    <path data-name="Path 25" d="M224.735 13.15q0-.551.617-.55t.619.55a.537.537 0 0 1-.155.409.656.656 0 0 1-.464.146q-.618 0-.617-.555m1.184 5.2h-1.135v-4.131h1.135Z"/>
    <path data-name="Path 26" d="M228.561 17.525a2.459 2.459 0 0 0 .715-.129v.838a2.56 2.56 0 0 1-1.043.189 1.289 1.289 0 0 1-.993-.341 1.487 1.487 0 0 1-.31-1.026v-1.988h-.543v-.48l.625-.377.328-.872h.727v.879h1.165v.85h-1.165v1.991a.439.439 0 0 0 .135.354.541.541 0 0 0 .36.115"/>
    <path data-name="Path 27" d="M233.655 18.349h-1.136v-2.413q0-.894-.67-.894a.764.764 0 0 0-.689.322 1.949 1.949 0 0 0-.211 1.039v1.943h-1.135v-5.743h1.135v1.172q0 .136-.027.642l-.025.333h.06a1.317 1.317 0 0 1 1.206-.606 1.482 1.482 0 0 1 1.113.391 1.55 1.55 0 0 1 .38 1.123Z"/>
    <path data-name="Path 28" d="M319.815 28.898v3.107H1.685v-3.107a.161.161 0 0 0-.161-.16H.16a.162.162 0 0 0-.161.16v7.939a.162.162 0 0 0 .161.16h1.363a.161.161 0 0 0 .161-.16v-3.161h318.13v3.161a.161.161 0 0 0 .161.16h1.363a.161.161 0 0 0 .16-.16v-7.939a.161.161 0 0 0-.16-.16h-1.363a.161.161 0 0 0-.161.16"/>
    <path data-name="Path 29" d="M40.144 14.708c0 .734-.231.961-.921.961-.361 0-.77-.022-1.039-.047v-7.76h1.908l3.332 4.926a3.208 3.208 0 0 1-.042-.614V7.862h1.962v7.76c-.33.032-.8.047-1.253.047a1.272 1.272 0 0 1-1.321-.722c-.3-.462-2.671-4.016-2.671-4.016a3.8 3.8 0 0 1 .044.766Z"/>
    <path data-name="Path 30" d="M17.594 7.862c-1.83.084-2.506 1.143-2.506 2.3a2.343 2.343 0 0 0 2.589 2.365c.6.013 1.4-.011 1.669 0a.744.744 0 1 1 0 1.487c-.276.016-2.944 0-2.944 0-.961 0-1.232.27-1.232 1.173v.48c.912.022 2.5.049 4.377.024a2.4 2.4 0 0 0 2.646-2.467 2.426 2.426 0 0 0-2.641-2.475c-.554-.01-1.476.018-1.76 0a.683.683 0 0 1 0-1.364c.284-.02 2.639 0 2.639 0 .96 0 1.232-.269 1.232-1.173v-.35c-.536-.01-2.675-.064-4.07 0"/>
    <path data-name="Path 31" d="M48.889 7.862c-1.83.084-2.505 1.143-2.505 2.3a2.342 2.342 0 0 0 2.588 2.365c.605.013 1.4-.011 1.669 0a.744.744 0 1 1 0 1.487c-.276.016-2.942 0-2.942 0-.961 0-1.233.27-1.233 1.173v.48c.912.022 2.5.049 4.378.024a2.4 2.4 0 0 0 2.645-2.465 2.425 2.425 0 0 0-2.64-2.475c-.554-.01-1.476.018-1.761 0a.683.683 0 0 1 0-1.364c.285-.02 2.639 0 2.639 0 .961 0 1.232-.269 1.232-1.173v-.352c-.535-.01-2.675-.064-4.07 0"/>
    <path data-name="Path 32" d="M37.951 15.622a22.69 22.69 0 0 1-1.238.047c-.653 0-1.106-.085-1.293-.679l-.272-.847h-2.926l-.271.847c-.189.594-.6.662-1.271.679-.593.015-1.11.015-1.726 0a1.467 1.467 0 0 1-1.239-.475l-2.53-2.906a.3.3 0 0 1-.088-.168v2.588c0 .733-.231.961-.921.961-.361 0-.944-.023-1.216-.047v-7.76h2.136v3.526a.373.373 0 0 1 .088-.217l2.58-3.306h2.521l-3.243 3.761s2.681 2.882 2.714 2.92a.272.272 0 0 1 .066.121.467.467 0 0 1 .029-.123l2.7-6.679h2.264Zm-3.3-3.042-.968-3.039-.966 3.039a.119.119 0 0 1 .086-.024h1.76a.127.127 0 0 1 .087.024"/>
    <path data-name="Path 33" d="M69.37 15.622a22.69 22.69 0 0 1-1.238.047c-.653 0-1.106-.085-1.293-.679l-.272-.847h-2.921l-.272.847c-.189.594-.6.662-1.271.679-.593.015-1.111.015-1.726 0a1.468 1.468 0 0 1-1.239-.475l-2.535-2.906a.311.311 0 0 1-.088-.168v2.588c0 .733-.231.961-.921.961-.361 0-.944-.023-1.216-.047v-7.76h2.136v3.526a.38.38 0 0 1 .087-.217l2.581-3.306h2.521l-3.243 3.761 2.715 2.92a.277.277 0 0 1 .065.121.467.467 0 0 1 .029-.123l2.7-6.679h2.264Zm-3.3-3.042-.968-3.039-.966 3.039a.119.119 0 0 1 .086-.024h1.761a.127.127 0 0 1 .087.024"/>
    <path data-name="Path 34" d="M108.889 23.086H78.126V.203h30.762v7.621H85.827v7.641h23.061Z"/>
    <path data-name="Path 35" d="M91.949 12.443v1.26a.953.953 0 0 1-.34.759 1.326 1.326 0 0 1-.89.289 1.369 1.369 0 0 1-.926-.309 1.016 1.016 0 0 1-.36-.807V9.601a1.012 1.012 0 0 1 .363-.8 1.387 1.387 0 0 1 .941-.315 1.078 1.078 0 0 1 1.212 1.229v.778h-.972v-.9c0-.2-.082-.3-.245-.3a.287.287 0 0 0-.261.123.808.808 0 0 0-.08.419v3.62q0 .482.314.481c.18 0 .272-.114.272-.342v-1.151Zm3.128.984q0 1.322-1.271 1.321a1.308 1.308 0 0 1-.918-.309 1.089 1.089 0 0 1-.34-.845v-3.88q0-1.228 1.3-1.229a1.127 1.127 0 0 1 1.23 1.229Zm-.972.073V9.581a.266.266 0 0 0-.083-.207.292.292 0 0 0-.2-.077c-.2 0-.3.106-.3.318v3.949c0 .251.1.376.286.376a.261.261 0 0 0 .233-.1.631.631 0 0 0 .066-.336m4.1-3.012h-.984v-.759c0-.29-.092-.436-.273-.436q-.313 0-.314.423v.3a1.059 1.059 0 0 0 .127.538 2.69 2.69 0 0 0 .532.584 3.315 3.315 0 0 1 .785.915 2.823 2.823 0 0 1 .172 1.139 1.754 1.754 0 0 1-.326 1.169 1.276 1.276 0 0 1-1.018.378 1.2 1.2 0 0 1-.955-.347 1.611 1.611 0 0 1-.3-1.08v-.873h1v1.012q0 .495.3.5a.245.245 0 0 0 .205-.106.459.459 0 0 0 .081-.284v-.773a.7.7 0 0 0-.13-.413 5.732 5.732 0 0 0-.62-.636 3.712 3.712 0 0 1-.679-.759 1.532 1.532 0 0 1-.146-.733v-.459a1.322 1.322 0 0 1 .332-.97 1.306 1.306 0 0 1 .971-.338 1.187 1.187 0 0 1 .942.341 1.6 1.6 0 0 1 .3 1.066Zm1.869 4.151h-1V9.317h-.691v-.733h2.3v.733h-.605Z"/>
    <path data-name="Path 36" d="M103.562 14.632h-1.012l-.134-1.275h-.688l-.119 1.275h-.926l.745-6.063h1.391Zm-1.191-2.021-.293-3.355-.294 3.355Zm1.757-4.042h.992v6.063h-.992Zm4.765 6.063h-1.072l-.771-3.236c-.044-.18-.083-.358-.114-.535s-.064-.393-.1-.653a2.195 2.195 0 0 1-.021-.192c-.019-.083-.031-.15-.04-.2l-.047-.237.08 1.13.04.448q0 .47.027.905.08 1.307.081 1.367v1.2h-.938v-6.06h1.1l.759 3.329c.04.185.1.488.172.911q.094.542.12.713c-.025-.216-.044-.38-.052-.5-.041-.379-.062-.6-.062-.653l-.032-.728-.046-.713-.013-.917V8.569h.931Z"/>
    <path data-name="Path 37" d="M122.796 8.212a5.694 5.694 0 0 0-2.492-.618 2.517 2.517 0 0 0-2.746 2.525c0 1.457.856 1.775 2.155 2.125.443.119 1.256.309 1.256.858 0 .529-.517.758-1 .758a2.918 2.918 0 0 1-1.838-.778l-.886 1.577a5.1 5.1 0 0 0 2.8.858 3.631 3.631 0 0 0 2.26-.708 2.485 2.485 0 0 0 .824-2.026c0-1.218-.856-1.747-1.965-2.056l-.528-.15c-.359-.11-.918-.279-.918-.718 0-.42.506-.629.887-.629a2.249 2.249 0 0 1 1.372.5Z"/>
    <path data-name="Rectangle 2" d="M117.541 3.148h48.213v2.554h-48.213z"/>
    <path data-name="Rectangle 3" d="M117.541 17.338h48.213v2.554h-48.213z"/>
    <path data-name="Path 38" d="M126.815 9.449h1.711V7.792h-5.491v1.657h1.71v5.869h2.07Z"/>
    <path data-name="Path 39" d="M132.934 12.234a2.048 2.048 0 0 0 1.742-2.126c0-1.607-1.193-2.316-2.767-2.316h-3.094v7.525h2.07v-2.894h.021l1.954 2.893h2.576Zm-2.049-2.945h.2c.675 0 1.436.119 1.436.938s-.761.938-1.436.938h-.2Z" fill-rule="evenodd"/>
    <path data-name="Path 40" d="m140.414 14.01.517 1.307h2.207l-3-7.525h-2.26l-3.062 7.525h2.2l.549-1.307Zm-.56-1.5h-1.722l.856-2.4h.021Z" fill-rule="evenodd"/>
    <path data-name="Path 41" d="M145.387 12.203h.211c.676 0 1.7-.09 1.7.819 0 .829-1.034.8-1.647.8h-.264Zm1.119 3.114c1.458 0 2.884-.518 2.884-2.1a1.718 1.718 0 0 0-1.627-1.916v-.019a1.545 1.545 0 0 0 .877-1.537c0-1.437-.951-1.956-2.366-1.956h-2.957v7.525Zm-1.119-6.028h.148c.56 0 1.2.039 1.2.729 0 .639-.57.729-1.12.729h-.232Z" fill-rule="evenodd"/>
    <path data-name="Path 42" d="m154.883 14.01.517 1.307h2.207l-3-7.525h-2.26l-3.062 7.525h2.2l.549-1.307Zm-.56-1.5h-1.722l.856-2.4h.021Z" fill-rule="evenodd"/>
    <path data-name="Path 43" d="M161.621 11.116v1.537h1.689a1.483 1.483 0 0 1-1.668 1.307 2.186 2.186 0 0 1-2.1-2.355 2.191 2.191 0 0 1 2.069-2.375 1.792 1.792 0 0 1 1.722 1.2l1.964-.779a3.724 3.724 0 0 0-3.59-2.105c-2.567 0-4.32 1.607-4.32 4.052a4.3 4.3 0 0 0 7.53 2.5 4.641 4.641 0 0 0 .813-2.974Z"/>
  </g>
</svg>
