<svg xmlns="http://www.w3.org/2000/svg" width="404.781" height="357.876" viewBox="0 0 404.781 357.876"><g data-name="Group 388"><path data-name="Path 2054" d="M290.14 245.062a110.049 110.049 0 0 0-48.72-168.863c-30.697-11.573-65.936-8.83-94.257 7.813-29.843 17.537-50.472 48.67-54.039 83.256a111.382 111.382 0 0 0 43.14 99.419c11.301 8.699 24.608-8.973 13.314-17.667a89.012 89.012 0 0 1-35.035-69.273c-.351-27.595 13.06-54.217 34.94-70.853 45.442-34.536 113.257-15.311 134.42 37.499 11.413 28.481 6.682 60.793-11.433 85.351-8.457 11.466 9.199 24.797 17.668 13.314" fill="#63aab0"/><path data-name="Path 2055" d="M317.234 265.479c22.617-30.52 32.855-68.828 27.554-106.552s-25.7-71.721-55.857-94.831c-11.317-8.672-24.63 8.998-13.313 17.67 52.992 40.603 63.696 116.763 23.948 170.401-8.485 11.447 9.174 24.773 17.668 13.312" fill="#65c7b4"/><path data-name="Path 2056" d="M227.331 356.39a181.3 181.3 0 0 0 150.184-139.438 179.9 179.9 0 0 0 2.327-62.951c-1.896-14.113-23.805-11.05-21.907 3.078a158.241 158.241 0 0 1-30.095 116.386 158.249 158.249 0 0 1-103.588 61.017c-14.08 2.065-11.032 23.978 3.08 21.908" fill="#63aab0"/><path data-name="Path 2057" d="M177.45 1.489A181.3 181.3 0 0 0 27.266 140.925a179.906 179.906 0 0 0-2.327 62.952c1.896 14.112 23.805 11.048 21.906-3.079A158.235 158.235 0 0 1 76.947 84.411 158.241 158.241 0 0 1 180.53 23.395c14.08-2.065 11.032-23.977-3.08-21.905" fill="#63aab0"/><path data-name="Path 2058" d="M87.548 92.4c-22.62 30.523-32.856 68.829-27.554 106.554s25.7 71.726 55.856 94.827c11.317 8.675 24.63-8.996 13.313-17.667-52.992-40.603-63.696-116.764-23.948-170.402 8.49-11.449-9.174-24.774-17.668-13.313" fill="#65c7b4"/></g></svg>