<svg xmlns="http://www.w3.org/2000/svg" xmlns:xlink="http://www.w3.org/1999/xlink" width="541.614" height="83.527" viewBox="0 0 541.614 83.527">
  <defs>
    <clipPath id="clip-path">
      <rect id="Rectangle_359" data-name="Rectangle 359" width="541.614" height="83.527" fill="#fff"/>
    </clipPath>
  </defs>
  <g id="Group_236" data-name="Group 236" transform="translate(0 0)">
    <g id="Group_188" data-name="Group 188" transform="translate(0 0)" clip-path="url(#clip-path)">
      <path id="Path_1871" data-name="Path 1871" d="M262.569,14.462c-1.341,3.9-2.545,7.384-3.736,10.87-2.732,8-5.492,16-8.153,24.025-.42,1.264-1.167,1.3-2.211,1.344-1.081.047-1.443-.447-1.707-1.388-3.636-12.955-7.336-25.893-10.94-38.856-.817-2.942-2.529-4.757-5.535-5.2-1.2-.179-1.247-.839-1.212-1.757.04-1.062.807-.847,1.418-.849q8.283-.017,16.568-.008c.73,0,1.393-.047,1.412,1.033.016.976-.234,1.472-1.3,1.494a17.05,17.05,0,0,0-2.782.345c-1.856.357-2.246.886-1.794,2.7.644,2.584,1.385,5.143,2.114,7.7q2.953,10.38,5.939,20.753c.11.382.271.749.555,1.523.3-.821.478-1.27.633-1.728,3.536-10.493,7.1-20.98,10.573-31.492a2.117,2.117,0,0,1,2.358-1.733c1.439-.031,1.8.707,2.161,1.815q5.313,16.107,10.688,32.194a3,3,0,0,0,.807,1.359c.37-1.239.76-2.472,1.1-3.718q3.21-11.617,6.4-23.241a18.532,18.532,0,0,0,.447-2.2c.329-2.238-.16-3.05-2.361-3.71a14.6,14.6,0,0,0-3.024-.568c-1.092-.087-1.094-.741-1.1-1.548-.008-.85.45-1,1.157-.994,5.007.013,10.017-.011,15.024.044a1.434,1.434,0,0,1,1.068.839c.145.61.31,1.448-.746,1.641-3.831.7-5.684,3.194-6.758,6.8-3.678,12.358-7.539,24.663-11.335,36.987a2.229,2.229,0,0,1-3.258,1.633,1.951,1.951,0,0,1-.834-1.154q-3.929-11.839-7.806-23.7-1.6-4.861-3.194-9.721c-.129-.386-.307-.757-.633-1.549" transform="translate(140.589 1.614)" fill="#fff"/>
      <path id="Path_1872" data-name="Path 1872" d="M85.509,2.641c3.09,0,6.179-.032,9.268.015a26.406,26.406,0,0,1,3.909.326c5.629.936,9.7,4.354,10.654,8.856a13.718,13.718,0,0,1-6,14.359,19.956,19.956,0,0,1-10.789,3.069q-2.387.041-4.773,0c-.775-.013-1.088.3-1.085,1.075.021,4.531-.026,9.066.04,13.6.029,2.033.9,2.918,2.937,3.31a15.936,15.936,0,0,0,2.642.342c1.046.019,1.346.463,1.328,1.465-.021,1.084-.675,1.038-1.406,1.038q-8.847-.007-17.691,0c-.758,0-1.357-.021-1.373-1.075-.016-1,.311-1.37,1.328-1.483,4.644-.516,4.986-.936,4.986-5.582q0-15.911,0-31.821c0-3.45-.581-4.147-3.952-4.744a11.149,11.149,0,0,0-1.527-.219c-1.118-.039-1.046-.794-1.059-1.575-.016-.881.513-.959,1.189-.957q5.686.015,11.372,0m4.746,2.79a14.862,14.862,0,0,0-2.517.044c-.386.068-.986.6-.989.92q-.087,9.453,0,18.905a1.387,1.387,0,0,0,.965.949,33.64,33.64,0,0,0,5.038-.127,8.7,8.7,0,0,0,6.536-3.647c2.672-3.97,2.558-8.267.686-12.426C98.247,6.212,94.7,5.325,90.816,5.426c-.187,0-.374,0-.562,0" transform="translate(44.771 1.614)" fill="#fff"/>
      <path id="Path_1873" data-name="Path 1873" d="M175.407,37.356l2.437,1.181c-2.216,5.529-5.5,9.862-11.238,11.869-11.069,3.871-22.552-1.065-27.075-11.887a28.275,28.275,0,0,1,.913-24.674,21.911,21.911,0,0,1,29.6-9.461c.5.25.994.507,1.623.826.3-.432.583-.838.857-1.252a2.435,2.435,0,0,1,2.806-.8,1.6,1.6,0,0,1,.476,1.175c.1,3.734.142,7.47.21,11.206.018.934.1,1.869.077,2.8-.021.665.358,1.627-.889,1.656-.96.021-1.919.247-2.225-1.209a33.068,33.068,0,0,0-1.507-4.659,23.126,23.126,0,0,0-1.37-2.913c-4.943-9.116-15.03-7.118-19.557-1.924-3.016,3.461-4.242,7.639-4.83,12.048-.778,5.832-.568,11.59,2.045,17,2.474,5.127,6.218,8.735,12.172,9.415,5.848.665,11.1-2.208,14.123-7.7.449-.815.836-1.662,1.352-2.7" transform="translate(84.165 1.194)" fill="#fff"/>
      <path id="Path_1874" data-name="Path 1874" d="M183.1,40.875c-.541.484-.86.747-1.154,1.033a13.034,13.034,0,0,1-9.763,3.863c-4.033-.094-7.131-2.208-8.106-5.677-1.146-4.088.271-8.337,3.787-10.26a60,60,0,0,1,7.37-3.045c2.182-.841,4.394-1.6,6.6-2.372a1.524,1.524,0,0,0,1.186-1.782,30.784,30.784,0,0,0-.442-4.58,6.34,6.34,0,0,0-9.926-3.4,1.719,1.719,0,0,0-.526,1.275,22.386,22.386,0,0,0,.42,2.482,3.159,3.159,0,0,1-1.551,3.6,3.772,3.772,0,0,1-4.133.061,3.572,3.572,0,0,1-1.4-3.989,7.124,7.124,0,0,1,1.744-3.1c3.479-3.46,7.861-4.262,12.571-3.884.232.018.463.06.7.089,5.751.7,8.679,3.7,8.8,9.494.116,5.369-.084,10.743-.145,16.115,0,.468-.042.936-.023,1.4.111,2.751,1.228,3.863,4,3.918,1.041.019,1.964.1,1.657,1.491-.084.379-.436.92-.754.989a25.848,25.848,0,0,1-5.472.95c-2.852,0-4.685-1.644-5.446-4.672m-.215-14.059c-4.12,1.286-8.364,2.214-11.145,5.911a6.777,6.777,0,0,0-1.018,5.75,4.328,4.328,0,0,0,3.605,3.481,8.579,8.579,0,0,0,8.248-3.42,1.581,1.581,0,0,0,.3-.77c.019-3.579.013-7.16.013-10.952" transform="translate(100.463 6.759)" fill="#fff"/>
      <path id="Path_1875" data-name="Path 1875" d="M287.217,41.049c-.3.263-.621.518-.912.807a12.946,12.946,0,0,1-9.873,3.91c-3.951-.1-7.012-2.188-8.016-5.606-1.146-3.9.2-8.161,3.465-10.144a33.332,33.332,0,0,1,5.477-2.467c2.708-1.034,5.453-1.974,8.207-2.876,1.343-.441,2.056-1.138,1.806-2.64a31.486,31.486,0,0,0-.612-4.41,6.335,6.335,0,0,0-9.8-2.948,2.133,2.133,0,0,0-.47,1.575c.048,1.017.394,2.022.424,3.037a3.178,3.178,0,0,1-2.922,3.2c-1.964.373-3.258-.2-3.921-1.838a4.739,4.739,0,0,1,1.054-5.312,13.852,13.852,0,0,1,9.765-4.286,25.408,25.408,0,0,1,4.614.229c4.769.576,7.8,3.628,8.007,8.424.192,4.38.031,8.776.021,13.165,0,1.822-.027,3.644-.015,5.466.018,2.574,1.162,3.71,3.786,3.781,1,.027,2.128-.084,1.812,1.47a1.44,1.44,0,0,1-.742.992,24.761,24.761,0,0,1-5.05.983,5.271,5.271,0,0,1-5.658-3.891,1.721,1.721,0,0,0-.171-.381,1.486,1.486,0,0,0-.276-.244m.039-14.065c-2.961.242-8.28,2.617-10.2,4.518a7.3,7.3,0,0,0-2.23,4.848c-.171,2.569.909,4.625,2.974,5.345a7.2,7.2,0,0,0,6.558-.9c1.83-1.193,3.344-2.579,2.851-5.087a3.666,3.666,0,0,1,.044-.7c0-2.65,0-5.3,0-8.03" transform="translate(164.492 6.765)" fill="#fff"/>
      <path id="Path_1876" data-name="Path 1876" d="M114.1,28.644c.079-5.558,1.675-10.488,6.108-14.054,5.128-4.128,10.986-4.631,16.917-2.17,5.977,2.48,8.788,7.454,9.294,13.741.408,5.078-.487,9.929-3.737,14.009-4.273,5.361-10.046,6.854-16.491,5.316-6.6-1.572-10.183-6.247-11.609-12.681a39.111,39.111,0,0,1-.481-4.16m7.052-.762c.018,5.114.852,8.832,2.542,11.569a7.516,7.516,0,0,0,5.385,3.865c3.9.587,7.065-1.212,8.732-5.438a25.487,25.487,0,0,0-.086-19.12,7.38,7.38,0,0,0-5.811-4.956c-4.072-.671-7.344,1.23-9.15,5.295a22.191,22.191,0,0,0-1.612,8.785" transform="translate(70.03 6.708)" fill="#fff"/>
      <path id="Path_1877" data-name="Path 1877" d="M228.544,35.927c2.563.994,2.655,1.265,1.173,3.329-3.931,5.475-9.29,7.5-15.834,6.273-6.35-1.188-10.1-5.246-11.569-11.369-1.717-7.144-.8-13.8,4.619-19.228a14.7,14.7,0,0,1,16.951-2.254c4.357,2.4,5.85,6.461,6.219,11.1.3,3.7.266,3.7-3.4,3.7-5.614,0-11.228.044-16.843-.031-1.365-.018-1.819.492-1.544,1.7.586,2.576.894,5.288,1.94,7.672,2.869,6.549,12.965,7.325,16.838,1.255.449-.705.934-1.386,1.449-2.148m-12.668-11.28c2.056,0,4.113-.056,6.168.021,1.209.047,1.6-.413,1.414-1.552-.216-1.333-.287-2.7-.6-4-.629-2.59-1.928-4.722-4.769-5.295a7.018,7.018,0,0,0-7.386,2.892,13.239,13.239,0,0,0-2.329,6.365c-.168,1.134.084,1.64,1.338,1.593,2.054-.074,4.112-.019,6.168-.019" transform="translate(123.688 6.728)" fill="#fff"/>
      <path id="Path_1878" data-name="Path 1878" d="M327,35.891l2.043,1.267c-2.019,5.27-8.022,8.924-14.128,8.695-7.33-.274-12.477-4.291-14.324-11.387-1.588-6.1-1.073-11.977,2.6-17.3a14.715,14.715,0,0,1,18.389-4.749c4.365,2.138,6.147,5.942,6.653,10.509s.481,4.565-4.054,4.565c-5.38,0-10.762.044-16.142-.031-1.375-.018-1.758.452-1.5,1.706a50.382,50.382,0,0,0,1.285,6.282,9.99,9.99,0,0,0,17.822,2.17c.329-.51.674-1.01,1.015-1.512a2.109,2.109,0,0,1,.341-.211m-5.458-11.346a14.844,14.844,0,0,0-1.325-7.709,5.692,5.692,0,0,0-4.259-3.092c-5.325-.773-10.533,5.306-9.187,10.8Z" transform="translate(183.967 6.723)" fill="#fff"/>
      <path id="Path_1879" data-name="Path 1879" d="M339.547,12.582c.41-1.2,1.154-1.886,2.414-1.522.336.1.8.531.815.833q.281,4.4.384,8.814c.006.3-.492.891-.721.873a2.423,2.423,0,0,1-1.611-.605,10.051,10.051,0,0,1-.81-2.067,8.4,8.4,0,0,0-9.455-5.106,4.895,4.895,0,0,0-4.149,3.844,4.616,4.616,0,0,0,2.661,5.216c1.977.938,4.086,1.6,6.129,2.4,1.391.545,2.8,1.054,4.142,1.711,3.788,1.859,5.9,4.765,5.595,9.156a9.528,9.528,0,0,1-6.386,8.614,14.552,14.552,0,0,1-12.118-.3c-.8-.376-1.572-.8-2.492-1.275a12.092,12.092,0,0,0-.5,1.139c-.36,1.109-1.3.81-2,.691-.332-.056-.779-.726-.8-1.136q-.223-4.476-.252-8.96c0-.423.349-1.128.673-1.22.737-.207,1.514-.236,1.875.855a13.509,13.509,0,0,0,4.914,6.989,9.009,9.009,0,0,0,8.4,1.255,4.738,4.738,0,0,0,3.45-4.026c.331-2.148-.155-4.109-2.117-5.245a41.864,41.864,0,0,0-5.233-2.317c-1.859-.755-3.815-1.3-5.613-2.177-4.254-2.072-6.1-5.543-5.448-9.894a9.794,9.794,0,0,1,8.167-7.819c3.06-.552,4.893-.326,10.078,1.281" transform="translate(196.643 6.728)" fill="#fff"/>
      <path id="Path_1880" data-name="Path 1880" d="M300.773,23.557q0,10.576,0,21.15c0,3.069.7,3.991,3.734,4.581.975.19,1.359.537,1.278,1.546-.092,1.164-.925.857-1.551.86q-6.591.034-13.186,0c-.654,0-1.431.223-1.5-.921-.066-1.059.363-1.338,1.343-1.446,3.05-.332,3.642-1.042,3.644-4.138q.007-18,0-35.995c0-4.22-.936-5.343-5.08-6.123-.8-.152-1.856-.1-1.57-1.378.092-.407.571-1.007.91-1.033C292.384.39,295.981.221,299.574,0c1.214-.073,1.2.72,1.2,1.564q-.007,10.014,0,20.028v1.961" transform="translate(176.658 0)" fill="#fff"/>
      <path id="Path_1881" data-name="Path 1881" d="M116.023,14.886a9.681,9.681,0,0,0-6.87,4.641,3.052,3.052,0,0,0-.189,1.5q-.017,8.755,0,17.511c0,2.379.726,3.248,3.092,3.726a12.3,12.3,0,0,0,2.082.287c.959.024,1.134.528,1.123,1.359-.011.865-.487.981-1.175.981q-7.576-.012-15.153,0c-.7,0-1.147-.15-1.16-1s.2-1.239,1.134-1.347c3.181-.368,3.726-1.017,3.731-4.191q.012-9.247,0-18.492c0-3.4-.984-4.628-4.309-5.267-.808-.155-.954-.549-.955-1.238,0-.718.2-1.146,1.005-1.2,3.127-.19,6.252-.407,9.377-.62.847-.058,1.2.365,1.2,1.164q0,1.711,0,3.423l.411.189c.374-.458.713-.95,1.128-1.368a12.216,12.216,0,0,1,6.9-3.755c2.054-.308,3.889.184,4.975,2.072a5.557,5.557,0,0,1-.147,5.989c-.75,1.214-2.337,1.583-4.039,1.076a3.071,3.071,0,0,1-2.348-2.96c-.008-.736.111-1.473.2-2.484" transform="translate(59.76 6.817)" fill="#fff"/>
      <path id="Path_1882" data-name="Path 1882" d="M203.342,14.89a10.031,10.031,0,0,0-6.056,3.45,4.188,4.188,0,0,0-1.125,3.042c.055,5.466.019,10.93.026,16.4,0,3.3.776,4.172,4.092,4.638a13.128,13.128,0,0,0,1.393.171c.9.024,1.015.654.842,1.254-.115.4-.589,1-.909,1-5.191.061-10.384.039-15.577.048-.768,0-1.047-.439-.891-1.065.11-.441.424-1.089.763-1.172,4.042-.983,4.049-.96,4.049-5.069q0-8.968,0-17.937c0-3.132-1.049-4.46-4.092-5.024-.831-.153-1.076-.494-1.081-1.283-.006-.852.376-1.149,1.168-1.2q4.483-.269,8.961-.6c.909-.068,1.3.281,1.281,1.184-.024,1.152,0,2.306,0,3.458l.4.236c.5-.573.972-1.173,1.5-1.711a12.107,12.107,0,0,1,5.882-3.386c2.019-.471,3.971-.336,5.371,1.431a5.5,5.5,0,0,1,.583,5.832c-.692,1.68-2.2,2.274-4.214,1.791a3.176,3.176,0,0,1-2.561-3.366c.024-.637.116-1.27.2-2.13" transform="translate(113.404 6.811)" fill="#fff"/>
      <path id="Path_1883" data-name="Path 1883" d="M310.977,52.752h-5.646c2.425-1.2,1.252-3.357,1.476-5.085a11.672,11.672,0,0,0,.01-1.68c-.026-1.512.428-3.24-1.954-3.613,1.6-1.259,3.76-.976,4.38.531,1.782-2.466,4.275-.973,6.466-1.26a24.5,24.5,0,0,1,3.194-.024l.053.513c-.4.263-.794.526-1.357.9q1.329,3.246,2.668,6.511c.129.013.26.026.391.04.784-1.961,1.665-3.892,2.275-5.9.126-.416-.76-1.138-1.318-1.911.681-.05,1.328-.131,1.977-.14,1.678-.027,3.365.081,5.032-.065,1.375-.118,1.691.415,1.633,1.654-.082,1.723-.074,3.457,0,5.182.06,1.525-.746,3.42,1.944,3.988-.134.113-.266.228-.4.34h-5.23c0-.158-.024-.32,0-.328,1.5-.505,1.565-1.672,1.5-2.99-.076-1.536-.069-3.082,0-4.62a1.915,1.915,0,0,0-1.757-2.251c-1.231-.232-1.828.487-2.243,1.441-1.134,2.613-2.222,5.245-3.362,7.856a7,7,0,0,1-.837,1.178,5.547,5.547,0,0,1-.988-1.194c-1.1-2.527-2.094-5.1-3.208-7.617a7.107,7.107,0,0,0-1.126-1.506c-.859.781-1.4,1.549-2.116,1.794-.307.1-.986-.878-1.656-1.52-1.246.273-1.817.9-1.836,2.425-.021,1.494.035,2.99-.019,4.483-.045,1.236.242,2.129,1.675,2.232.15.01.289.182.433.281-.016.121-.031.24-.047.361" transform="translate(187.108 25.443)" fill="#fff"/>
      <path id="Path_1884" data-name="Path 1884" d="M88.753,57.99c-.331.534-.4.792-.558.883a5.24,5.24,0,0,1-7.3-2.719,2.159,2.159,0,0,0-1.394-1c-3.821-.867-6.2-3.933-6.253-8.2-.06-4.318,2.275-7.588,6.061-8.487,5.22-1.241,9.8,2.842,9.584,8.571-.123,3.268-1.41,5.882-4.435,7.4-.923.463-.96,1.013-.55,1.793a3.011,3.011,0,0,0,3.021,1.853c.491-.032.983-.048,1.828-.089M86.4,46.892a28.5,28.5,0,0,0-1.536-5.25,4.253,4.253,0,0,0-7.62-.015,10.989,10.989,0,0,0-.055,10.255,4.034,4.034,0,0,0,3.862,2.351A3.945,3.945,0,0,0,84.9,51.874a44.76,44.76,0,0,0,1.5-4.982" transform="translate(44.952 23.471)" fill="#fff"/>
      <path id="Path_1885" data-name="Path 1885" d="M238.6,58.369a3.5,3.5,0,0,1-.9.654c-3.324,1.028-5.395.039-6.863-3.111a2.037,2.037,0,0,0-1.312-.763c-3.867-.855-6.289-4.025-6.3-8.322s2.371-7.528,6.213-8.395a7.63,7.63,0,0,1,7.9,3.056,8.98,8.98,0,0,1-2.924,12.962c-.836.462-.93.936-.563,1.673a3.052,3.052,0,0,0,3.1,1.953c.494-.032.988-.047,1.483-.069.055.121.111.242.166.363m-2.187-11.49a29.4,29.4,0,0,0-1.635-5.361,4.208,4.208,0,0,0-7.388-.127,10.5,10.5,0,0,0-.045,10.714,4.212,4.212,0,0,0,7.459-.119,28.607,28.607,0,0,0,1.609-5.106" transform="translate(137.001 23.474)" fill="#fff"/>
      <path id="Path_1886" data-name="Path 1886" d="M115.3,53.186a3.9,3.9,0,0,1-4.059,1.1,2.216,2.216,0,0,1-1.523-2.406c-.01-2.1-.032-4.2.006-6.3.016-.957-.073-1.68-1.315-1.583-.2.016-.437-.337-.658-.52.178-.176.37-.515.531-.5,1.835.153,1.423-1.164,1.417-2.158,0-.854.108-1.593,1.178-1.339a1.808,1.808,0,0,1,.962.981,2.617,2.617,0,0,1,.035,1.246c-.074.9.305,1.254,1.218,1.228,2-.055,4.012-.053,6.018-.052.478,0,.955.086,1.433.132l.087.361-1.357.9c.889,2.166,1.793,4.37,2.7,6.574.124,0,.248,0,.373,0,.775-1.935,1.644-3.842,2.245-5.829.134-.442-.684-1.17-1.16-1.917h3.9c0,.123.052.34-.006.374-1.539.905-1.972,2.527-2.606,4.01-1.083,2.534-2.1,5.1-3.237,7.606a18.117,18.117,0,0,1-1.888,3.1,2.37,2.37,0,0,1-2.739.936,2.256,2.256,0,0,1-1.175-1.162c-.123-.278.228-1.091.468-1.136a3.13,3.13,0,0,1,1.635.273c.25.1.374.516.531.752,2.141-1.5,2.761-3.436,1.911-5.517q-1.38-3.372-2.785-6.733c-.713-1.7-1.067-1.875-2.931-1.578-.045.006-.094,0-.14.011-2.49.287-2.492.287-2.49,2.758,0,1.307-.021,2.616.023,3.923.066,1.893.505,2.29,2.371,2.275.232,0,.466-.01.7.01.081.006.155.087.329.194" transform="translate(66.13 24.194)" fill="#fff"/>
      <path id="Path_1887" data-name="Path 1887" d="M300.49,38.767c0,1.52.015,3.042-.016,4.56,0,.232-.218.46-.336.689-.244-.161-.6-.268-.71-.5-.315-.621-.486-1.314-.794-1.94a3.561,3.561,0,0,0-3.14-2.233,2.457,2.457,0,0,0-2.627,1.468,2.5,2.5,0,0,0,.718,3.047,7.948,7.948,0,0,0,1.8,1.047c1.059.489,2.169.87,3.219,1.375a4.14,4.14,0,0,1,2.58,4.125,4.6,4.6,0,0,1-2.774,4.209,7.1,7.1,0,0,1-5.722.042,2.545,2.545,0,0,0-1.488.026c-.641.2-1.017.15-1.054-.581-.066-1.3-.132-2.609-.142-3.915,0-.26.252-.521.389-.781.242.168.575.286.708.516.3.523.46,1.125.754,1.652a4.656,4.656,0,0,0,3.179,2.53c1.7.342,3.169-.292,3.647-1.586a3.2,3.2,0,0,0-1.628-4.023c-1.255-.613-2.608-1.026-3.876-1.617a4.2,4.2,0,0,1-2.693-3.479c-.368-3.563,3.089-6.027,6.752-4.848a22.064,22.064,0,0,0,2.7.523l.549-.311" transform="translate(177.991 23.48)" fill="#fff"/>
      <path id="Path_1888" data-name="Path 1888" d="M206.28,52.408c-1.993-1.636-1.988-2.269.077-4.293a6.122,6.122,0,0,1-.608-.331A3.261,3.261,0,0,1,204.325,44a3.58,3.58,0,0,1,3.339-2.579c2.048-.021,4.1.168,6.145.316.223.016.421.371.631.568-.24.163-.463.418-.728.471a10.557,10.557,0,0,1-1.517.106,3.471,3.471,0,0,0,.063.554c.965,3.018-.491,5.114-3.626,5.235-.852.032-2.09-.21-2.08,1.017s1.288.918,2.117,1.005c.93.1,1.867.119,2.8.2a3.259,3.259,0,0,1,1.606,6.021,8.672,8.672,0,0,1-8.208.307,2.861,2.861,0,0,1-1.2-2.248c.008-.7.792-1.431,1.343-2.056.244-.276.755-.316,1.27-.512m2.992,4.846a11.1,11.1,0,0,0,2.527-.947c1.238-.818,1.131-2.953-.145-3.177a14.039,14.039,0,0,0-4.683.031c-.544.092-1.246,1.191-1.27,1.853-.021.571.713,1.33,1.3,1.719a7.254,7.254,0,0,0,2.269.523M210.535,45a9.4,9.4,0,0,0-.6-1.859,1.706,1.706,0,0,0-3.063,0,3.691,3.691,0,0,0,.14,3.862,1.668,1.668,0,0,0,2.964-.129A9.742,9.742,0,0,0,210.535,45" transform="translate(124.999 25.421)" fill="#fff"/>
      <path id="Path_1889" data-name="Path 1889" d="M173.1,54.64c2.217-.21,1.841-1.683,1.845-2.958.008-3.41-.027-6.821.018-10.231.019-1.465-.058-2.759-1.93-2.956-.079-.008-.136-.218-.387-.655,1.431-.089,2.693-.213,3.952-.192.184,0,.5.705.51,1.089.05,2.1.023,4.194.023,6.565.605-.4.994-.686,1.407-.93a4.018,4.018,0,0,1,4.012-.336c1.346.676,1.607,1.966,1.6,3.34-.008,1.215-.019,2.43,0,3.644.029,1.48-.512,3.2,1.9,3.713-.1.108-.21.216-.313.326h-5.39c-.1-.11-.2-.219-.3-.329,2.469-.4,1.919-2.132,1.938-3.6.016-1.167.029-2.337-.008-3.5-.053-1.673-.86-2.592-2.166-2.538a2.636,2.636,0,0,0-2.671,2.642c-.015.981-.021,1.962,0,2.943.035,1.593-.6,3.455,1.924,4.1-.1.1-.2.2-.3.3h-5.319c-.115-.144-.228-.287-.341-.431" transform="translate(105.958 23.104)" fill="#fff"/>
      <path id="Path_1890" data-name="Path 1890" d="M215.254,45.149a16.826,16.826,0,0,1,2.553-1.33c2.474-.771,4.278.56,4.37,3.169.048,1.4.013,2.8.014,4.2,0,2.3,0,2.3,1.769,3.828h-5.525a1.363,1.363,0,0,1,0-.323c1.746-.437,1.723-1.764,1.661-3.165-.061-1.351.032-2.709-.055-4.057-.1-1.623-.905-2.45-2.158-2.411a2.656,2.656,0,0,0-2.7,2.619c-.026,1.026-.019,2.054-.006,3.081.021,1.564-.513,3.355,1.885,3.976-.086.1-.169.2-.253.3h-5.28c2.2-.959,1.49-2.835,1.517-4.4.052-2.8.032-5.6.008-8.4-.013-1.682.492-3.668-2.454-3.831l.334-.592c1.3-.056,2.609-.142,3.912-.118.116,0,.305.721.313,1.11.037,1.633.011,3.266.021,4.9,0,.449.047.9.077,1.444" transform="translate(129.252 23.131)" fill="#fff"/>
      <path id="Path_1891" data-name="Path 1891" d="M139.891,54.152c3.061-.3,2.372-2.342,2.388-4.013.029-2.708-.037-5.416.027-8.122.032-1.31-.186-2.319-1.682-2.59-.147-.027-.265-.224-.4-.344.786-.758,5.558-.852,6.72-.155-.052.116-.094.336-.161.344-2.043.253-2.1,1.665-2.064,3.279.076,3.079,0,6.161.058,9.242.031,1.707.408,1.909,2.114,2.069,2.4.223,4.083-.6,4.995-2.89a5,5,0,0,1,.82-1.083l.474.16c-.1,1.4-.187,2.808-.352,4.2-.023.189-.476.466-.729.466-3.833.015-7.665-.01-11.5-.039-.1,0-.207-.145-.713-.528" transform="translate(85.857 23.601)" fill="#fff"/>
      <path id="Path_1892" data-name="Path 1892" d="M201.916,41.7c1.217-.058,2.435-.166,3.647-.119.19.006.5.708.507,1.094.052,2,.026,4.012.026,6.016,0,2.34,0,2.34,1.62,3.537-1.3,1.007-3.442.8-3.98-.284a15.1,15.1,0,0,1-3.092,1.125c-2.158.294-3.384-.779-3.544-2.953-.1-1.393-.039-2.8-.057-4.2-.018-1.509.413-3.224-2.033-3.633.089-.186.179-.371.27-.557,1.181-.06,2.366-.169,3.544-.127.16,0,.41.757.42,1.168.044,2.1.011,4.2.024,6.3.01,1.857.7,2.8,2.006,2.774a2.635,2.635,0,0,0,2.606-2.818c.006-1.072,0-2.145,0-3.218,0-2.526,0-2.526-1.94-3.65-.01-.152-.018-.3-.026-.455" transform="translate(119.687 25.515)" fill="#fff"/>
      <path id="Path_1893" data-name="Path 1893" d="M90.378,41.71c1.289-.05,2.58-.134,3.868-.1.142,0,.373.687.381,1.059.039,1.959.008,3.92.024,5.88.013,1.451-.436,3.116,1.836,3.529-1.644,1.151-3.655.926-4.18-.129a17.362,17.362,0,0,1-3.39,1.117,2.612,2.612,0,0,1-3.206-2.54,40.223,40.223,0,0,1-.16-4.328c-.039-1.573.51-3.374-1.92-3.992.081-.166.161-.332.244-.5,1.146-.048,2.295-.148,3.436-.094.168.008.418.752.426,1.159.045,2.1.01,4.2.027,6.3.016,1.856.726,2.793,2.045,2.763a2.655,2.655,0,0,0,2.627-2.814c.011-1.4-.034-2.8.014-4.2.042-1.259-.186-2.246-1.7-2.369-.137-.011-.26-.2-.391-.313.008-.142.014-.286.021-.428" transform="translate(51.328 25.528)" fill="#fff"/>
      <path id="Path_1894" data-name="Path 1894" d="M240.323,41.751c1.22-.055,2.443-.163,3.66-.115.2.008.518.707.529,1.094.057,1.914.006,3.829.037,5.745.023,1.486-.505,3.232,1.882,3.66-1.68,1.141-3.625.909-4.278-.276a13.08,13.08,0,0,1-2.354,1.175c-2.422.668-4.065-.507-4.259-3.035-.115-1.486-.063-2.989-.044-4.483.018-1.385.189-2.816-1.794-3.1.679-.715,3.3-1.183,3.694-.715a1.946,1.946,0,0,1,.284,1.165c.027,2.1,0,4.205.021,6.308.018,1.782.692,2.693,1.953,2.716a2.663,2.663,0,0,0,2.71-2.874c.008-1.028,0-2.056,0-3.084,0-2.585,0-2.585-2.019-3.729-.008-.15-.015-.3-.023-.449" transform="translate(143.433 25.476)" fill="#fff"/>
      <path id="Path_1895" data-name="Path 1895" d="M103.125,52.256c-1.307,1.42-2.685,1.264-4.057-.15a20.726,20.726,0,0,1-3.474,1.109,2.612,2.612,0,0,1-3.047-1.891,3.012,3.012,0,0,1,1.561-3.67c1.217-.583,2.556-.909,3.781-1.475.457-.211,1.1-.849,1.041-1.18a4.494,4.494,0,0,0-1.081-2.393c-.378-.357-1.386-.155-2.072-.013-.186.039-.184.788-.347,1.176a3.214,3.214,0,0,1-.805,1.42,1.352,1.352,0,0,1-1.306-.316,2.17,2.17,0,0,1-.037-1.675c.7-1.462,3.442-2.219,5.556-1.656,1.594.424,2.306,1.48,2.327,3.521.011,1.214-.019,2.427-.036,3.641-.023,1.557-.479,3.328,2,3.552M98.941,47.1c-.126-.134-.25-.269-.376-.4a16.237,16.237,0,0,0-3.252,2.132,2.759,2.759,0,0,0-.144,2.4,2.038,2.038,0,0,0,1.875.615,3.057,3.057,0,0,0,1.817-1.6,10.63,10.63,0,0,0,.079-3.147" transform="translate(56.713 25.381)" fill="#fff"/>
      <path id="Path_1896" data-name="Path 1896" d="M249.1,52.12a21.935,21.935,0,0,1-3.594,1.1,2.57,2.57,0,0,1-2.987-1.959,2.974,2.974,0,0,1,1.512-3.568c1.212-.587,2.524-.971,3.787-1.456,1.223-.471,1.523-1.472.854-2.806a1.975,1.975,0,0,0-2.832-.9c-.279.2-.269.771-.442,1.151a4.261,4.261,0,0,1-.849,1.525,1.405,1.405,0,0,1-1.267-.371,2.51,2.51,0,0,1,.092-1.8c.792-1.386,3.52-2.046,5.5-1.475,1.581.455,2.256,1.5,2.272,3.565.01,1.307.015,2.614-.029,3.92-.048,1.473-.339,3.047,1.935,3.129-1.1,1.528-2.692,1.375-3.952-.053m-.182-5.246c-1.515.36-2.937.7-3.683,1.975a2.874,2.874,0,0,0-.132,2.314,2.034,2.034,0,0,0,1.854.692,3.013,3.013,0,0,0,1.878-1.546,12.24,12.24,0,0,0,.082-3.436" transform="translate(148.772 25.38)" fill="#fff"/>
      <path id="Path_1897" data-name="Path 1897" d="M284.783,47.16c0,3.729-2.242,6.2-5.6,6.177-3.134-.024-5.4-2.513-5.412-5.934-.008-3.665,2.166-6.016,5.563-6.014,3.334,0,5.449,2.241,5.451,5.771m-2.167.252c-.3-1.249-.479-2.361-.849-3.4a2.174,2.174,0,0,0-2.324-1.667,3.777,3.777,0,0,0-2.464,1.465,7.338,7.338,0,0,0,.1,7.241,2.47,2.47,0,0,0,4.5-.134,19.986,19.986,0,0,0,1.034-3.5" transform="translate(168.024 25.402)" fill="#fff"/>
      <path id="Path_1898" data-name="Path 1898" d="M123.777,47.331c.011-3.61,2.238-5.955,5.646-5.942,3.263.011,5.45,2.372,5.416,5.842-.035,3.629-2.275,6.085-5.571,6.106-3.169.023-5.5-2.527-5.492-6.006m8.8.194c-.223-1.139-.344-2.164-.633-3.139a2.7,2.7,0,0,0-5.2-.234,8.372,8.372,0,0,0,.127,6.545,2.546,2.546,0,0,0,2.379,1.683,2.515,2.515,0,0,0,2.5-1.711,24.684,24.684,0,0,0,.826-3.145" transform="translate(75.967 25.402)" fill="#fff"/>
      <path id="Path_1899" data-name="Path 1899" d="M187.585,47.367c-.013-3.544,2.2-5.956,5.472-5.977,3.41-.023,5.585,2.245,5.576,5.808-.011,3.636-2.225,6.1-5.524,6.14-3.192.042-5.511-2.464-5.524-5.971m8.789.131a30.838,30.838,0,0,0-.613-3.1,2.712,2.712,0,0,0-5.259-.132,7.715,7.715,0,0,0,.287,6.51,3.815,3.815,0,0,0,2.266,1.543,2.118,2.118,0,0,0,2.417-1.51,28.823,28.823,0,0,0,.9-3.311" transform="translate(115.129 25.402)" fill="#fff"/>
      <path id="Path_1900" data-name="Path 1900" d="M262.6,41.671h5.041c.037.1.073.2.11.308l-1.331.91c.87,2.138,1.757,4.318,2.645,6.5l.411.084c.781-2,1.646-3.968,2.266-6.014.113-.374-.771-1.051-1.336-1.764h4.309c-3.118,2.981-3.612,7.047-5.395,10.467-.776,1.488-1.531,2.99-2.413,4.414a2.41,2.41,0,0,1-2.774,1.186,2.558,2.558,0,0,1-1.318-1.188c-.134-.239.258-1.12.452-1.133a4.25,4.25,0,0,1,1.743.371c.207.079.3.462.413.66,2.183-1.5,2.792-3.421,1.932-5.517-.6-1.47-1.185-2.948-1.819-4.406-.744-1.706-1.047-3.7-3.14-4.562.068-.1.137-.208.2-.313" transform="translate(161.041 25.575)" fill="#fff"/>
      <path id="Path_1901" data-name="Path 1901" d="M288.136,55.1h-6.2c-.031-.09-.06-.181-.09-.271a3.205,3.205,0,0,0,.688-.463c.336-.384.86-.81.876-1.233.087-2.332.022-4.667.055-7,.015-.975-.594-.97-1.289-1.03-.3-.026-.584-.305-.875-.47.3-.2.608-.6.889-.581,1.146.084,1.26-.566,1.334-1.465.178-2.188,1.036-4.02,3.265-4.77a4.732,4.732,0,0,1,2.448-.019c.391.09.766.747.9,1.217.078.268-.3.938-.539.971a2.649,2.649,0,0,1-1.514-.305c-.383-.2-.631-.654-.994-1.054-1.136.471-1.183,1.5-1.335,2.43-.09.549-.037,1.118-.1,1.673-.1.976.315,1.389,1.288,1.288a1.945,1.945,0,0,1,.833.029,2.917,2.917,0,0,1,.691.508c-.218.186-.408.474-.657.536-.659.163-1.712.01-1.932.381a5.018,5.018,0,0,0-.211,2.312c-.021,1.541.035,3.082-.019,4.622-.042,1.144.248,1.92,1.543,2.027.207.016.392.268.936.666" transform="translate(172.647 23.102)" fill="#fff"/>
      <path id="Path_1902" data-name="Path 1902" d="M158.413,38.71c-1.123.754-2.053,4-1.328,4.932.273.35,1.083.258,1.627.432a8.034,8.034,0,0,1,1.1.542c-.36.187-.744.566-1.076.526-1.585-.2-1.89.576-1.812,1.953.1,1.72.069,3.452.006,5.175-.044,1.236.211,2.127,1.656,2.229.165.011.313.255.75.636h-6.442a7.3,7.3,0,0,0,.792-.684c.365-.452.978-.915,1-1.4.108-2.235.027-4.477.06-6.715.011-.826-.282-1.172-1.133-1.191-.35-.01-.692-.371-1.038-.573.329-.171.667-.5.989-.483.949.042,1.068-.458,1.26-1.247a12.129,12.129,0,0,1,1.409-3.71,3.658,3.658,0,0,1,4.236-1.338,2.028,2.028,0,0,1,.975,1.183,1.231,1.231,0,0,1-.605,1.067,2.474,2.474,0,0,1-1.5-.365,4.284,4.284,0,0,1-.925-.971" transform="translate(93.639 23.052)" fill="#fff"/>
      <path id="Path_1903" data-name="Path 1903" d="M300.562,47.015c-.439,3.118,1.414,5.379,3.938,4.9a7.873,7.873,0,0,0,2.211-1.3c.313-.187.644-.342.965-.513-.068.4-.011.881-.223,1.173a5.251,5.251,0,0,1-8.5-.3,7.176,7.176,0,0,1,.249-7.565,5.022,5.022,0,0,1,5.753-1.777,4.238,4.238,0,0,1,2.83,4.234c.007.839-.277,1.168-1.133,1.152-2.041-.037-4.084-.011-6.089-.011m4.891-1.126c-.055-1.43-.077-2.768-1.376-3.3a2.962,2.962,0,0,0-2.311.25,2.736,2.736,0,0,0-1.223,3.05Z" transform="translate(182.891 25.382)" fill="#fff"/>
      <path id="Path_1904" data-name="Path 1904" d="M137.665,55.06h-5.734c-.084-.1-.169-.2-.255-.292,2.324-.539,1.764-2.246,1.788-3.7.026-1.494-.026-2.99.016-4.485.026-.918-.1-1.557-1.262-1.5-.289.016-.6-.366-.9-.565.286-.171.586-.505.855-.483,1.117.094,1.285-.5,1.357-1.431.163-2.129.984-3.952,3.121-4.744a5.107,5.107,0,0,1,2.585-.082c.381.073.77.734.913,1.2.082.268-.282.944-.518.981a2.615,2.615,0,0,1-1.515-.287c-.384-.2-.633-.657-1.264-1.36-.423,1.012-.8,1.78-1.059,2.588a10.913,10.913,0,0,0-.147,1.527c-.2,1.239.3,1.7,1.544,1.6.405-.031.841.318,1.262.494-.447.2-.9.578-1.336.555-1.184-.065-1.551.392-1.5,1.543.079,1.865.068,3.737,0,5.6-.044,1.26.278,2.111,1.694,2.211.144.011.274.2.413.3l-.063.313" transform="translate(80.595 23.109)" fill="#fff"/>
      <path id="Path_1905" data-name="Path 1905" d="M334.349,41.393a4.256,4.256,0,0,1,4.514,4.464c.016.841-.283,1.172-1.136,1.152-1.728-.039-3.458.024-5.187-.019-.954-.024-1.249.349-1.088,1.26.282,1.6.829,3.014,2.534,3.547a3.274,3.274,0,0,0,3.931-1.36c.147-.2.51-.249.773-.366,0,.323.124.715-.016.955-1.6,2.753-6.169,3.026-8.257.515a7.1,7.1,0,0,1,.192-8.571,4.534,4.534,0,0,1,3.741-1.577m2.011,4.475c.208-2.209-.624-3.563-2.1-3.594-1.615-.032-2.821,1.548-2.658,3.594Z" transform="translate(201.964 25.4)" fill="#fff"/>
      <path id="Path_1906" data-name="Path 1906" d="M163.641,47.019c-.8,0-1.594.045-2.385-.011-1.065-.074-1.454.316-1.231,1.389.32,1.535.854,2.911,2.508,3.42a3.3,3.3,0,0,0,3.939-1.364c.148-.2.578-.2.878-.289a2.721,2.721,0,0,1-.189.98,5.263,5.263,0,0,1-8.517-.036A7.282,7.282,0,0,1,158.9,43.3a5.06,5.06,0,0,1,5.546-1.706c1.791.552,2.74,1.97,2.961,4.163.1,1.038-.273,1.336-1.236,1.272-.839-.056-1.683-.011-2.526-.01m-3.933-1.055c1.869,0,3.257.024,4.643-.024.232-.008.644-.328.652-.516a2.8,2.8,0,0,0-1.3-2.882,2.094,2.094,0,0,0-2.839.747,14.627,14.627,0,0,0-1.157,2.676" transform="translate(96.744 25.381)" fill="#fff"/>
      <path id="Path_1907" data-name="Path 1907" d="M255.169,55.07h-5.306c-.1-.1-.2-.19-.292-.287,2.553-.636,1.836-2.522,1.859-4.081.045-3.121-.021-6.245.029-9.366.023-1.409-.236-2.509-1.862-2.771-.139-.023-.25-.219-.36-.721,1.293-.079,2.585-.21,3.876-.179.171,0,.458.826.463,1.27.037,3.775-.024,7.551.044,11.324.029,1.678-.8,3.716,1.549,4.812" transform="translate(152.967 23.113)" fill="#fff"/>
      <path id="Path_1908" data-name="Path 1908" d="M99.126,37.855c1.486-.092,2.785-.221,4.08-.19.171,0,.457.828.462,1.273.035,4.062.01,8.125.027,12.187.008,1.435-.5,3.113,1.878,3.573l-.329.344h-5.28c2.324-.981,1.507-2.971,1.544-4.6.068-2.94-.021-5.884.035-8.824.031-1.536-.136-2.83-2-3.106-.084-.013-.142-.215-.416-.655" transform="translate(60.838 23.113)" fill="#fff"/>
      <path id="Path_1909" data-name="Path 1909" d="M322.48,47.362c0-3.818,2.619-6.344,6.158-5.945,1.893.213,3.069,1.472,2.911,3.1-.081.82-.508,1.46-1.32,1.212a2.264,2.264,0,0,1-1.193-1.368c-.218-.683.641-1.743-.715-2.019a2.314,2.314,0,0,0-2.671,1.338,7.206,7.206,0,0,0-.3,6.1c.994,2.55,3.6,2.956,5.495.973a4.458,4.458,0,0,1,1.057-.621,3.762,3.762,0,0,1-.423,1.273,5.042,5.042,0,0,1-5.824,1.533c-2.049-.789-3.181-2.771-3.179-5.571" transform="translate(197.92 25.394)" fill="#fff"/>
      <path id="Path_1910" data-name="Path 1910" d="M265.315,53.008a3.59,3.59,0,0,1-3.891,1.3,2.1,2.1,0,0,1-1.707-2.254c-.037-2.193-.044-4.386-.008-6.579.016-.917-.108-1.567-1.255-1.506-.229.011-.476-.31-.715-.478.211-.194.436-.568.629-.552,1.32.111,1.451-.663,1.365-1.669a2.144,2.144,0,0,1,.045-1.1c.176-.324.608-.725.912-.712a1.507,1.507,0,0,1,1.094.671,2.667,2.667,0,0,1,.06,1.377c-.094,1.007.27,1.438,1.341,1.417a6.8,6.8,0,0,1,1.833.486,7.346,7.346,0,0,1-1.891.566c-.979.024-1.32.384-1.288,1.339.061,1.77.008,3.545.066,5.317.068,2.011.458,2.346,2.437,2.317.273,0,.546.031.973.056" transform="translate(158.186 24.218)" fill="#fff"/>
      <path id="Path_1911" data-name="Path 1911" d="M175.385,53.046a3.684,3.684,0,0,1-3.926,1.26,2.136,2.136,0,0,1-1.685-2.279q-.078-3.285-.021-6.571c.016-.939-.142-1.548-1.272-1.483-.226.013-.471-.311-.708-.479.211-.192.437-.566.629-.55,1.439.124,1.438-.789,1.386-1.786-.019-.371-.118-.833.058-1.094a1.454,1.454,0,0,1,1.023-.607,1.324,1.324,0,0,1,1.012.605,2.808,2.808,0,0,1,.06,1.378c-.1,1.044.228,1.538,1.391,1.494a5.116,5.116,0,0,1,1.714.591,5.871,5.871,0,0,1-1.717.455c-1.155-.053-1.438.447-1.4,1.494.065,1.63.008,3.263.019,4.894.015,2.221.386,2.577,2.611,2.58a7.987,7.987,0,0,1,.821.1" transform="translate(102.97 24.216)" fill="#fff"/>
      <path id="Path_1912" data-name="Path 1912" d="M185.716,42.658a15.963,15.963,0,0,1,2.351-1.16,1.592,1.592,0,0,1,2.2,1.707c-.087.518-.7.947-1.067,1.415-.46-.363-.941-.7-1.364-1.1-.131-.123-.1-.413-.166-.721-1.418.429-2.283,1.128-2.235,2.671.048,1.493.063,2.989-.006,4.48-.058,1.268.3,2.1,1.7,2.208.145.011.278.2.787.576h-6.124c2.884-2.643,1.136-5.953,1.347-8.932.036-.5-.971-1.072-1.494-1.606,1.186-1.01,3.421-.776,4.068.465" transform="translate(111.485 25.409)" fill="#fff"/>
      <path id="Path_1913" data-name="Path 1913" d="M154.09,52.689H148.9l-.271-.313c2.306-.47,1.794-2.129,1.822-3.55.019-.978-.011-1.956.007-2.932.029-1.557.276-3.215-2.02-3.491.673-.744,3.537-1.186,3.92-.673a2.144,2.144,0,0,1,.244,1.186c.023,1.907-.01,3.816.018,5.724.021,1.469-.505,3.177,1.877,3.723l-.4.326" transform="translate(91.099 25.475)" fill="#fff"/>
      <path id="Path_1914" data-name="Path 1914" d="M253.807,41.689c1.178-.052,2.358-.157,3.531-.1.192.01.492.712.5,1.1.053,1.959.01,3.918.032,5.877.018,1.477-.51,3.19,1.841,3.745l-.291.328h-5.154c2.269-1.1,1.218-3.129,1.409-4.777a11.11,11.11,0,0,0,.006-1.538c-.042-1.654.568-3.6-2.185-4.059.1-.192.2-.384.308-.576" transform="translate(155.583 25.514)" fill="#fff"/>
      <path id="Path_1915" data-name="Path 1915" d="M109.314,52.711h-5.169c2.03-.918,1.462-2.648,1.5-4.142.021-.933,0-1.865,0-2.8,0-2.206,0-2.206-1.969-3.592.566-.478,3.331-.928,3.742-.512a1.76,1.76,0,0,1,.352,1.125c.034,1.911,0,3.821.024,5.732.021,1.512-.524,3.257,1.9,3.867l-.382.32" transform="translate(63.63 25.473)" fill="#fff"/>
      <path id="Path_1916" data-name="Path 1916" d="M320.749,37.715c.358.587.944,1.149,1.02,1.77a1.318,1.318,0,0,1-1.454,1.488,1.284,1.284,0,0,1-1.364-1.549c.123-.625.737-1.152,1.133-1.722.223,0,.444.008.665.013" transform="translate(195.736 23.139)" fill="#fff"/>
      <path id="Path_1917" data-name="Path 1917" d="M258.1,39.3c-.983.741-1.507,1.435-2.122,1.527-.9.137-1.454-.581-1.423-1.514s.59-1.6,1.509-1.436c.586.1,1.08.726,2.037,1.423" transform="translate(156.229 23.233)" fill="#fff"/>
      <path id="Path_1918" data-name="Path 1918" d="M104.424,39.022c.565-.408,1.136-1.138,1.69-1.125.486.01,1.228.789,1.364,1.349a1.23,1.23,0,0,1-1.328,1.556c-.607-.063-1.149-.728-1.72-1.123l0-.657" transform="translate(64.09 23.259)" fill="#fff"/>
      <path id="Path_1919" data-name="Path 1919" d="M152.863,39.294c-.973.744-1.488,1.436-2.1,1.533-.9.142-1.448-.584-1.422-1.506s.578-1.6,1.5-1.444c.579.1,1.07.721,2.022,1.417" transform="translate(91.658 23.233)" fill="#fff"/>
      <path id="Path_1920" data-name="Path 1920" d="M26.018,48.522A13.009,13.009,0,1,1,13.15,35.472a12.974,12.974,0,0,1,12.868,13.05" transform="translate(0 21.77)" fill="#fff"/>
      <path id="Path_1921" data-name="Path 1921" d="M34.028,28.839a12.988,12.988,0,1,1,.137-25.976,12.988,12.988,0,1,1-.137,25.976" transform="translate(12.954 1.756)" fill="#fff"/>
      <path id="Path_1922" data-name="Path 1922" d="M56.547,61.445A12.987,12.987,0,1,1,69.714,48.515,12.962,12.962,0,0,1,56.547,61.445" transform="translate(26.809 21.77)" fill="#fff"/>
      <path id="Path_1923" data-name="Path 1923" d="M34.438,20.838a29.167,29.167,0,0,1,10.846,3.628A57.968,57.968,0,0,1,60.965,37.1a2.555,2.555,0,0,1,0,3.791,2.6,2.6,0,0,1-3.779-.344A55.706,55.706,0,0,0,44.6,29.974a28.572,28.572,0,0,0-11.035-4.117c-1.765-.223-2.727-1.247-2.608-2.73s1.233-2.351,3.482-2.288" transform="translate(18.993 12.787)" fill="#fff"/>
      <path id="Path_1924" data-name="Path 1924" d="M48.11,57.387c-2.279-.867-4.649-1.551-6.82-2.634-7.854-3.917-13.756-10.037-18.8-17.064a2.481,2.481,0,0,1,.621-3.626,2.569,2.569,0,0,1,3.618.8A54.925,54.925,0,0,0,38.5,47.051a27.172,27.172,0,0,0,10.36,5.027A2.5,2.5,0,0,1,50.934,54.9a3.056,3.056,0,0,1-2.824,2.488" transform="translate(13.48 20.636)" fill="#fff"/>
      <path id="Path_1925" data-name="Path 1925" d="M12.8,42.641A34.851,34.851,0,0,1,17.444,26.72c1.683-3.031,3.7-5.88,5.663-8.746,1.068-1.559,2.637-1.809,3.884-.836s1.285,2.474.131,3.986c-4.163,5.451-7.52,11.3-8.806,18.135a26.441,26.441,0,0,0-.374,4.347C17.9,45.491,17,46.681,15.425,46.7c-1.528.015-2.538-1.1-2.619-2.9-.018-.386,0-.773,0-1.159" transform="translate(7.854 10.165)" fill="#fff"/>
      <path id="Path_1926" data-name="Path 1926" d="M17.627,30.848c.633-1.6,1.168-3.079,1.819-4.5a1.314,1.314,0,0,1,1.068-.462c3.934.261,7.872.51,11.795.9a2.432,2.432,0,0,1,2.321,2.947c-.226,1.414-1.414,2.159-3.06,2.051-4.36-.289-8.726-.529-13.089-.792-.166-.01-.331-.055-.854-.144" transform="translate(10.818 15.884)" fill="#fff"/>
      <path id="Path_1927" data-name="Path 1927" d="M36.809,47.011a51.776,51.776,0,0,1-11.775,3.282c-.976.161-1.956.328-2.939.4a2.474,2.474,0,0,1-2.829-2.2,2.524,2.524,0,0,1,2.209-2.83c3.361-.71,6.716-1.446,10.081-2.14a1.483,1.483,0,0,1,1.072.126c1.359,1.031,2.664,2.13,4.181,3.363" transform="translate(11.813 26.685)" fill="#fff"/>
      <path id="Path_1928" data-name="Path 1928" d="M40.086,27.1c1.238.81,2.545,1.614,3.781,2.516a1.214,1.214,0,0,1,.255,1.1c-1.11,3.244-2.222,6.489-3.457,9.686a2.531,2.531,0,0,1-4.725-1.811c1.246-3.739,2.538-7.464,3.818-11.191.024-.068.119-.11.328-.3" transform="translate(21.966 16.63)" fill="#fff"/>
      <path id="Path_1929" data-name="Path 1929" d="M44.23,28.217c-1.528-.805-3.044-1.573-4.518-2.416-.213-.121-.269-.586-.326-.905-.407-2.316-.76-4.641-1.2-6.95a2.584,2.584,0,0,1,1.581-3.127A2.5,2.5,0,0,1,42.92,16.1c1.2,2.295,1.995,9.39,1.31,12.121" transform="translate(23.394 8.994)" fill="#fff"/>
      <path id="Path_1930" data-name="Path 1930" d="M16.755,26.693c-.45,1.862-.813,3.487-1.255,5.091a1.54,1.54,0,0,1-.747.765c-1.43.77-2.9,1.473-4.328,2.235a2.591,2.591,0,0,1-3.52-.758,2.511,2.511,0,0,1,.642-3.434,25.631,25.631,0,0,1,9.208-3.9" transform="translate(3.982 16.382)" fill="#fff"/>
      <path id="Path_1931" data-name="Path 1931" d="M32.566,42.672c1.586-1.431,2.968-2.761,4.443-3.978a2.462,2.462,0,0,1,3.1.192,2.289,2.289,0,0,1,.537,3.023A29.827,29.827,0,0,1,37.431,45.2a.877.877,0,0,1-.815.026c-1.346-.808-2.661-1.667-4.05-2.551" transform="translate(19.987 23.464)" fill="#fff"/>
    </g>
  </g>
</svg>
