<?xml version="1.0" encoding="UTF-8" standalone="no"?>
<svg width="156" height="156" viewBox="0 0 156 156" version="1.1" xmlns="http://www.w3.org/2000/svg">
  <clipPath id="clip1">
    <rect x="46" y="40" width="63" height="64" fill="white"/>
  </clipPath>
  <path data-name="Path 3380" d="m 6002,1869 a 78,78 0 1 1 -78,78 78,78 0 0 1 78,-78" fill="#25386f" transform="translate(-5924,-1869)" />
  <g transform="translate(0 0)">
    <path data-name="Path 3382" d="m 5947.329,1972.947 v -9.112 a 10.622,10.622 0 0 1 1.842,-6.107 15.006,15.006 0 0 1 5.04,-4.556 44.46,44.46 0 0 1 9.6,-3.441 96.131,96.131 0 0 1 12.6,-2.278 22.712,22.712 0 0 0 -8.143,6.35 15.688,15.688 0 0 0 -3.1,10.033 v 9.112 z m 23.846,-56.126 a 14.171,14.171 0 0 1 10.469,-4.07 16.336,16.336 0 0 1 2.375,0.194 20.457,20.457 0 0 1 2.375,0.485 20.629,20.629 0 0 0 -3.538,6.155 22.573,22.573 0 0 0 -1.211,7.706 24.289,24.289 0 0 0 1.211,7.9 15.922,15.922 0 0 0 3.538,5.961 10.253,10.253 0 0 1 -2.375,0.533 21.684,21.684 0 0 1 -2.375,0.145 13.945,13.945 0 0 1 -14.54,-14.54 14.17,14.17 0 0 1 4.071,-10.469" fill="#3fa9f5" transform="translate(-5899.3282,-1869.7415)" />
    <animateTransform id="w_step1" attributeName="transform" attributeType="XML" type="translate" from="0, 0" to="-25, 1" begin="w_step0.end" dur="1s" fill="freeze"/>
  </g>
  <g transform="translate(0 0)">
    <path data-name="Path 3381" d="m 6038.836,1972.946 v -9.112 a 15.694,15.694 0 0 0 -3.1,-10.033 22.7,22.7 0 0 0 -8.143,-6.349 96.155,96.155 0 0 1 12.6,2.278 44.384,44.384 0 0 1 9.6,3.441 15,15 0 0 1 5.041,4.556 10.63,10.63 0 0 1 1.842,6.107 v 9.112 z m -1.938,-45.656 a 13.946,13.946 0 0 1 -14.54,14.54 21.683,21.683 0 0 1 -2.375,-0.146 10.255,10.255 0 0 1 -2.375,-0.533 15.913,15.913 0 0 0 3.538,-5.962 24.263,24.263 0 0 0 1.212,-7.9 22.55,22.55 0 0 0 -1.212,-7.706 20.613,20.613 0 0 0 -3.538,-6.156 20.459,20.459 0 0 1 2.375,-0.485 16.336,16.336 0 0 1 2.375,-0.194 13.946,13.946 0 0 1 14.54,14.54" fill="#3fa9f5" transform="translate(-5949.608,-1869.7348)" />
      <animateTransform id="w_step1" attributeName="transform" attributeType="XML" type="translate" from="0, 0" to= "25, 1" begin="w_step0.end" dur="1s" fill="freeze"/>
  </g>
  <path d="m 46.981 103.946 v -9.112 a 11.291 11.291 0 0 1 1.744 -6.155 a 10.618 10.618 0 0 1 4.847 -4.12 a 76.855 76.855 0 0 1 12.747 -4.459 a 50.023 50.023 0 0 1 11.68 -1.357 a 49.416 49.416 0 0 1 11.632 1.357 a 77.533 77.533 0 0 1 12.7 4.459 a 10.9 10.9 0 0 1 4.9 4.12 a 11.06 11.06 0 0 1 1.793 6.155 v 9.112 z M 78 72.831 a 13.946 13.946 0 0 1 -14.54 -14.54 a 14.545 14.545 0 1 1 29.081 0 a 13.946 13.946 0 0 1 -14.54 14.54 " fill="#25386f" stroke-width="12" stroke="#25386f" />
  <g clip-path="url(#clip1)">
    <g transform="translate(0 20)">
         <path data-name="Path 3383" d="m 5970.981,1972.946 v -9.112 a 11.291,11.291 0 0 1 1.744,-6.155 10.618,10.618 0 0 1 4.847,-4.12 76.855,76.855 0 0 1 12.747,-4.459 50.023,50.023 0 0 1 11.68,-1.357 49.416,49.416 0 0 1 11.632,1.357 77.533,77.533 0 0 1 12.7,4.459 10.9,10.9 0 0 1 4.9,4.12 11.06,11.06 0 0 1 1.793,6.155 v 9.112 z M 6002,1941.831 a 13.946,13.946 0 0 1 -14.54,-14.54 14.545,14.545 0 1 1 29.081,0 13.946,13.946 0 0 1 -14.54,14.54 m -25.2,25.3 h 50.405 v -3.3 a 5.546,5.546 0 0 0 -0.92,-3 5.069,5.069 0 0 0 -2.279,-2.035 65.415,65.415 0 0 0 -11.732,-4.175 46.882,46.882 0 0 0 -10.275,-1.066 47.55,47.55 0 0 0 -10.324,1.066 64.836,64.836 0 0 0 -11.777,4.169 4.8,4.8 0 0 0 -2.23,2.035 5.769,5.769 0 0 0 -0.872,3 z m 25.2,-31.116 a 8.454,8.454 0 1 0 -6.25,-2.472 8.476,8.476 0 0 0 6.253,2.472" fill="#ffffff" transform="translate(-5924,-1869)"/>
         <animateTransform id="w_step0" attributeName="transform" attributeType="XML" type="translate" from="0, 63" to="0, 0" begin="0s" dur="1s" fill="freeze" />
      </g>
   </g>
</svg>
